<svg xmlns="http://www.w3.org/2000/svg" width="40.101" height="32.26" viewBox="0 0 40.101 32.26">
  <g id="Group_12935" data-name="Group 12935" transform="translate(-140 -33.282)">
    <g id="Group_24" data-name="Group 24" transform="translate(140 33.282)">
      <g id="Group_23" data-name="Group 23" transform="translate(0 0)">
        <g id="Group_21" data-name="Group 21" transform="translate(32.718 20.877)">
          <path id="Path_19" data-name="Path 19" d="M3825.843,460.931c-.154,0-.308-.007-.457-.015l.1-3.9h.714l.1,3.9C3826.151,460.925,3826,460.931,3825.843,460.931Z" transform="translate(-3825.386 -457.02)" fill="#fff"/>
        </g>
        <g id="Group_22" data-name="Group 22">
          <path id="Path_20" data-name="Path 20" d="M3749.912,412.2h-26.74l-.215-.049a8.526,8.526,0,0,1-6.646-8.352,8.338,8.338,0,0,1,.123-1.44,8.523,8.523,0,0,1,6.771-6.965,10.671,10.671,0,0,1,19.7-2.391,8.3,8.3,0,0,1,9.971,6.245,6.926,6.926,0,0,1-2.9,12.948Zm-26.279-3.9h26.133a3.027,3.027,0,0,0,.708-5.875l-1.208-.418-.1-1.275a4.409,4.409,0,0,0-4.382-4.046,4.29,4.29,0,0,0-2.035.5l-2.071,1.1-.7-2.237a6.764,6.764,0,0,0-13.178,1.331l-.18,1.745-1.755,0a4.649,4.649,0,0,0-4.588,3.887,4.511,4.511,0,0,0-.065.78A4.644,4.644,0,0,0,3723.633,408.3Z" transform="translate(-3716.311 -387.42)" fill="#fff"/>
        </g>
      </g>
      <path id="Path_21" data-name="Path 21" d="M3760.114,466.7v-3.14h-34.548v3.14h3.141v3.141h-3.141v3.141h34.548v-3.141h-3.14V466.7Zm-25.126,3.141h-3.141V466.7h3.141Zm6.281,0h-3.141V466.7h3.141Zm6.28,0h-3.14V466.7h3.14Zm6.281,0h-3.14V466.7h3.14Z" transform="translate(-3722.79 -440.722)" fill="#fff"/>
    </g>
  </g>
</svg>
