<svg id="evaluate" xmlns="http://www.w3.org/2000/svg" width="17.482" height="17.482" viewBox="0 0 17.482 17.482">
  <path id="Path_11023" data-name="Path 11023" d="M66.692,151h-6.18a.512.512,0,0,0-.512.512,3.6,3.6,0,0,0,7.2,0A.512.512,0,0,0,66.692,151Zm-3.073,3.073a2.591,2.591,0,0,1-2.543-2.049h5.052A2.565,2.565,0,0,1,63.619,154.073Z" transform="translate(-57.951 -145.844)"/>
  <path id="Path_11024" data-name="Path 11024" d="M91.512,92.024h1.024a.512.512,0,1,0,0-1.024H91.512a.512.512,0,0,0,0,1.024Z" transform="translate(-87.893 -87.893)"/>
  <path id="Path_11025" data-name="Path 11025" d="M181.512,92.024h1.024a.512.512,0,0,0,0-1.024h-1.024a.512.512,0,0,0,0,1.024Z" transform="translate(-174.82 -87.893)"/>
  <path id="Path_11026" data-name="Path 11026" d="M11.814,6.18c-.18,0-.359.009-.538.026.017-.177.026-.357.026-.538A5.651,5.651,0,1,0,5.668,11.3c.182,0,.361-.009.538-.026-.017.179-.026.358-.026.538A5.651,5.651,0,1,0,11.814,6.18ZM1.024,5.668a4.627,4.627,0,1,1,4.644,4.61A4.649,4.649,0,0,1,1.024,5.668Zm10.79,10.79a4.643,4.643,0,0,1-4.55-5.387,5.657,5.657,0,0,0,3.807-3.807,4.628,4.628,0,1,1,.743,9.193Z"/>
  <path id="Path_11027" data-name="Path 11027" d="M266.771,361a3.591,3.591,0,0,0-2.67,1.195.512.512,0,0,0,.763.684,2.557,2.557,0,0,1,3.815,0,.512.512,0,0,0,.763-.684A3.591,3.591,0,0,0,266.771,361Z" transform="translate(-254.957 -348.674)"/>
  <path id="Path_11028" data-name="Path 11028" d="M271.512,302.024h1.024a.512.512,0,0,0,0-1.024h-1.024a.512.512,0,0,0,0,1.024Z" transform="translate(-261.747 -290.722)"/>
  <path id="Path_11029" data-name="Path 11029" d="M361.512,302.024h1.024a.512.512,0,1,0,0-1.024h-1.024a.512.512,0,1,0,0,1.024Z" transform="translate(-348.674 -290.722)"/>
</svg>
