<svg xmlns="http://www.w3.org/2000/svg" width="15.898" height="14.37" viewBox="0 0 15.898 14.37">
  <path id="folder" d="M14.523,28.058V26.987a1.377,1.377,0,0,0-1.376-1.376H6.708l-.24-.392A.459.459,0,0,0,6.077,25h-4.7A1.377,1.377,0,0,0,0,26.376V37.994A1.377,1.377,0,0,0,1.376,39.37H14.523A1.377,1.377,0,0,0,15.9,37.994v-8.56A1.377,1.377,0,0,0,14.523,28.058Zm-1.376-1.529a.459.459,0,0,1,.459.459v1.07h-5.4l-.614-1-.322-.526Zm1.834,11.465a.459.459,0,0,1-.459.459H1.376a.459.459,0,0,1-.459-.459V26.376a.459.459,0,0,1,.459-.459H5.82l.24.392h0l.884,1.444.614,1a.459.459,0,0,0,.391.219h6.573a.459.459,0,0,1,.459.459v8.56Z" transform="translate(0 -25)"/>
</svg>
