<svg id="favourite" xmlns="http://www.w3.org/2000/svg" width="17.744" height="17.706" viewBox="0 0 17.744 17.706">
  <path id="Path_11030" data-name="Path 11030" d="M12.076,3.477H10.333a2.711,2.711,0,0,0-4.62-2.138l-.541.541-.541-.541A2.713,2.713,0,1,0,.795,5.176L2.106,6.487a5.669,5.669,0,0,0,5.007,8.327H7.96l3.694,3.438V14.814h.422a5.668,5.668,0,1,0,0-11.337ZM1.53,2.075a1.674,1.674,0,0,1,2.365,0L5.172,3.352,6.448,2.075A1.672,1.672,0,0,1,8.813,4.44L5.172,8.082,1.53,4.44a1.674,1.674,0,0,1,0-2.365Zm10.545,11.7H10.613v2.089L8.369,13.774H7.113A4.63,4.63,0,0,1,2.883,7.265L5.172,9.553,9.549,5.176a2.7,2.7,0,0,0,.484-.658h2.042a4.628,4.628,0,1,1,0,9.256Z" transform="translate(0 -0.546)"/>
  <path id="Path_11031" data-name="Path 11031" d="M194.949,240.147h1.1v1.041h-1.1Z" transform="translate(-188.193 -231.843)"/>
  <path id="Path_11032" data-name="Path 11032" d="M265.014,240.147h1.1v1.041h-1.1Z" transform="translate(-255.83 -231.843)"/>
  <path id="Path_11033" data-name="Path 11033" d="M335.078,240.147h1.1v1.041h-1.1Z" transform="translate(-323.465 -231.843)"/>
</svg>
