<svg xmlns="http://www.w3.org/2000/svg" width="25.453" height="25.453" viewBox="0 0 25.453 25.453">
  <g id="blogger" transform="translate(-8 -8)">
    <path id="Path_10976" data-name="Path 10976" d="M32.016,8H9.437A1.438,1.438,0,0,0,8,9.437V27.911a1.438,1.438,0,0,0,1.437,1.437H26.474V31.4a2.053,2.053,0,0,0,4.105,0V29.347h1.437a1.438,1.438,0,0,0,1.437-1.437V9.437A1.438,1.438,0,0,0,32.016,8ZM29.758,31.4a1.232,1.232,0,0,1-2.463,0v-.411h2.463Zm0-1.232H27.295v-.411h2.463Zm0-1.232H27.295V17.032h2.463Zm0-12.726H27.295V15.9l.253-.508H29.5l.254.508Zm-1.8-1.642.568-1.135.568,1.135Zm4.673,13.342a.616.616,0,0,1-.616.616H30.579V15.8a.415.415,0,0,0-.043-.184l-1.642-3.284a.411.411,0,0,0-.735,0l-1.642,3.284a.415.415,0,0,0-.043.184V28.526H9.437a.616.616,0,0,1-.616-.616V11.284H32.632Zm0-17.447H8.821V9.437a.616.616,0,0,1,.616-.616H32.016a.616.616,0,0,1,.616.616Z" fill="#8b8b8b"/>
    <path id="Path_10977" data-name="Path 10977" d="M40.411,32.821h.411a.411.411,0,1,0,0-.821h-.411a.411.411,0,0,0,0,.821Z" transform="translate(-30.358 -22.768)" fill="#8b8b8b"/>
    <path id="Path_10978" data-name="Path 10978" d="M72.411,32.821h.411a.411.411,0,0,0,0-.821h-.411a.411.411,0,0,0,0,.821Z" transform="translate(-60.716 -22.768)" fill="#8b8b8b"/>
    <path id="Path_10979" data-name="Path 10979" d="M104.411,32.821h.411a.411.411,0,0,0,0-.821h-.411a.411.411,0,1,0,0,.821Z" transform="translate(-91.074 -22.768)" fill="#8b8b8b"/>
    <path id="Path_10980" data-name="Path 10980" d="M400.411,192a.411.411,0,0,0-.411.411v10.263a.411.411,0,1,0,.821,0V192.411A.411.411,0,0,0,400.411,192Z" transform="translate(-371.884 -174.558)" fill="#8b8b8b"/>
    <path id="Path_10981" data-name="Path 10981" d="M67.084,264H56.411a.411.411,0,1,0,0,.821H67.084a.411.411,0,1,0,0-.821Z" transform="translate(-45.537 -242.863)" fill="#8b8b8b"/>
    <path id="Path_10982" data-name="Path 10982" d="M67.084,296H56.411a.411.411,0,0,0,0,.821H67.084a.411.411,0,0,0,0-.821Z" transform="translate(-45.537 -273.221)" fill="#8b8b8b"/>
    <path id="Path_10983" data-name="Path 10983" d="M67.084,328H56.411a.411.411,0,1,0,0,.821H67.084a.411.411,0,1,0,0-.821Z" transform="translate(-45.537 -303.579)" fill="#8b8b8b"/>
    <path id="Path_10984" data-name="Path 10984" d="M63.8,360H56.411a.411.411,0,1,0,0,.821H63.8a.411.411,0,1,0,0-.821Z" transform="translate(-45.537 -333.937)" fill="#8b8b8b"/>
    <path id="Path_10985" data-name="Path 10985" d="M67.084,88H56.411a.411.411,0,0,0-.411.411V95.8a.411.411,0,0,0,.411.411H67.084a.411.411,0,0,0,.411-.411V88.411A.411.411,0,0,0,67.084,88Zm-.411,7.389H56.821V88.821h9.853Z" transform="translate(-45.537 -75.895)" fill="#8b8b8b"/>
  </g>
</svg>
