<svg xmlns="http://www.w3.org/2000/svg" width="30.817" height="26.559" viewBox="0 0 30.817 26.559">
  <g id="algorithms" transform="translate(0 -35.375)">
    <g id="Group_12922" data-name="Group 12922" transform="translate(0 35.375)">
      <path id="Path_10910" data-name="Path 10910" d="M248.847,119.194a.6.6,0,1,0,.173.824A.608.608,0,0,0,248.847,119.194Z" transform="translate(-232.99 -114.055)" fill="#8b8b8b"/>
      <path id="Path_10911" data-name="Path 10911" d="M30.818,48.776a3.564,3.564,0,0,0-2.957-3.507V39.607a1.715,1.715,0,0,0-1.713-1.713h-4v-.509a2.012,2.012,0,0,0-2.009-2.009H11.024a2.012,2.012,0,0,0-2.009,2.009v.509H4.985a1.715,1.715,0,0,0-1.713,1.713v5.646l-3.1,3.1a.609.609,0,0,0,0,.851l3.1,3.1v5.4a1.715,1.715,0,0,0,1.713,1.713h4.03v.509a2.012,2.012,0,0,0,2.009,2.009h9.118a2.012,2.012,0,0,0,2.009-2.009v-.509h4A1.715,1.715,0,0,0,27.86,57.7V52.284a3.564,3.564,0,0,0,2.957-3.507ZM3.874,46.353,6.3,48.776,3.874,51.2,1.451,48.776ZM20.948,59.924a.806.806,0,0,1-.805.805H11.024a.806.806,0,0,1-.805-.805V57.7a.806.806,0,0,1,.805-.805h9.118a.806.806,0,0,1,.805.805v2.222Zm5.2-1.713h-4V57.7a2.012,2.012,0,0,0-2.009-2.009H11.024A2.012,2.012,0,0,0,9.015,57.7v.509H4.985a.51.51,0,0,1-.509-.509V52.3l3.1-3.1a.609.609,0,0,0,0-.851l-3.1-3.1V39.607a.51.51,0,0,1,.509-.509h4.03v.509a2.012,2.012,0,0,0,2.009,2.009h1.854a.6.6,0,1,0,0-1.2H11.024a.806.806,0,0,1-.805-.805V37.384a.806.806,0,0,1,.805-.805h9.118a.806.806,0,0,1,.805.805v2.222a.806.806,0,0,1-.805.805h-1.97a.6.6,0,0,0,0,1.2h1.97a2.012,2.012,0,0,0,2.009-2.009V39.1h4a.51.51,0,0,1,.509.509v5.663a3.559,3.559,0,0,0,0,7.015V57.7a.51.51,0,0,1-.509.509Zm1.111-7.079a2.355,2.355,0,1,1,2.355-2.355A2.377,2.377,0,0,1,27.258,51.132Z" transform="translate(0 -35.375)" fill="#8b8b8b"/>
    </g>
  </g>
</svg>
