<svg xmlns="http://www.w3.org/2000/svg" width="27.701" height="27.701" viewBox="0 0 27.701 27.701">
  <g id="volume" transform="translate(0)">
    <path id="Path_10971" data-name="Path 10971" d="M395.058,21.209a.812.812,0,0,0,.812-.812V.812A.812.812,0,0,0,395.058,0h-3.246A.812.812,0,0,0,391,.812V20.4a.812.812,0,0,0,.812.812ZM392.623,1.623h1.623V19.585h-1.623Z" transform="translate(-369.846)" fill="#8b8b8b"/>
    <path id="Path_10972" data-name="Path 10972" d="M275.058,79.854a.812.812,0,0,0,.812-.812V62.812a.812.812,0,0,0-.812-.812h-3.246a.812.812,0,0,0-.812.812V79.043a.812.812,0,0,0,.812.812Zm-2.435-16.231h1.623V78.231h-1.623Z" transform="translate(-256.338 -58.646)" fill="#8b8b8b"/>
    <path id="Path_10973" data-name="Path 10973" d="M155.058,136.608a.812.812,0,0,0,.812-.812V122.812a.812.812,0,0,0-.812-.812h-3.246a.812.812,0,0,0-.812.812V135.8a.812.812,0,0,0,.812.812Zm-2.435-12.985h1.623v11.362h-1.623Z" transform="translate(-142.83 -115.399)" fill="#8b8b8b"/>
    <path id="Path_10974" data-name="Path 10974" d="M35.058,193.362a.812.812,0,0,0,.812-.812v-9.739a.812.812,0,0,0-.812-.812H31.812a.812.812,0,0,0-.812.812v9.739a.812.812,0,0,0,.812.812Zm-2.435-9.739h1.623v8.116H32.623Z" transform="translate(-29.323 -172.153)" fill="#8b8b8b"/>
    <path id="Path_10975" data-name="Path 10975" d="M26.889,423.623h-7.5a2.434,2.434,0,0,0-4.59,0H.812a.812.812,0,0,0,0,1.623H14.8a2.434,2.434,0,0,0,4.59,0h7.5a.812.812,0,0,0,0-1.623ZM17.1,425.246a.812.812,0,0,1-.811-.811h0a.812.812,0,1,1,.811.813Z" transform="translate(0 -399.168)" fill="#8b8b8b"/>
  </g>
</svg>
