<svg id="server" xmlns="http://www.w3.org/2000/svg" width="26.79" height="26.79" viewBox="0 0 26.79 26.79">
  <path id="Path_10879" data-name="Path 10879" d="M21.558,21.558v1.831H16.011V21.558H14.18V16.564h6.557V0H6.053V16.564H12.61v4.993H10.779v1.831H5.233V21.558H0V26.79H5.233V24.959h5.546V26.79h5.233V24.959h5.546V26.79H26.79V21.558ZM7.623,10.019V6.545h8.4V8.022H17.6V6.545h1.57v3.474Zm0-8.45h8.4V3.047H17.6V1.57h1.57V4.975H7.623Zm0,10.019h8.4V13h1.57V11.589h1.579v3.406H7.623ZM3.663,25.221H1.57V23.128H3.663Zm10.779,0H12.349V23.128h2.093Zm10.779,0H23.128V23.128h2.093Z" fill="#8b8b8b"/>
</svg>
