<svg xmlns="http://www.w3.org/2000/svg" xmlns:xlink="http://www.w3.org/1999/xlink" width="29.142" height="29.137" viewBox="0 0 29.142 29.137">
  <defs>
    <clipPath id="clip-path">
      <rect width="29.142" height="29.137" fill="none"/>
    </clipPath>
  </defs>
  <g id="data_1_" data-name="data (1)" clip-path="url(#clip-path)">
    <g id="data_1_2" data-name="data (1)" transform="translate(0 -0.046)">
      <path id="Path_10918" data-name="Path 10918" d="M295.821,352.051a3.889,3.889,0,0,0-3.851,3.4h-2.461a.486.486,0,0,1-.486-.486v-2.914h-.971v2.914a1.457,1.457,0,0,0,1.457,1.457h2.461a3.885,3.885,0,1,0,3.851-4.37Zm0,6.8a2.914,2.914,0,1,1,2.914-2.914A2.914,2.914,0,0,1,295.821,358.849Zm0,0" transform="translate(-270.566 -330.638)" fill="#8b8b8b"/>
      <path id="Path_10919" data-name="Path 10919" d="M3.888,7.816a3.889,3.889,0,0,0,3.851-3.4H10.2a.486.486,0,0,1,.486.486V7.33h.971V4.9A1.457,1.457,0,0,0,10.2,3.446H7.739a3.885,3.885,0,1,0-3.851,4.37Zm0-6.8A2.914,2.914,0,1,1,.974,3.931,2.914,2.914,0,0,1,3.888,1.018Zm0,0" transform="translate(0 0)" fill="#8b8b8b"/>
      <path id="Path_10920" data-name="Path 10920" d="M289.022,4.9a.486.486,0,0,1,.486-.486h2.461a3.885,3.885,0,1,0,0-.971h-2.461A1.457,1.457,0,0,0,288.051,4.9V7.332h.971Zm6.8-3.885a2.914,2.914,0,1,1-2.914,2.914A2.914,2.914,0,0,1,295.821,1.02Zm0,0" transform="translate(-270.566 -0.002)" fill="#8b8b8b"/>
      <path id="Path_10921" data-name="Path 10921" d="M10.687,354.962a.486.486,0,0,1-.486.486H7.739a3.885,3.885,0,1,0,0,.971H10.2a1.457,1.457,0,0,0,1.457-1.457v-2.885h-.971Zm-6.8,3.885A2.914,2.914,0,1,1,6.8,355.933,2.914,2.914,0,0,1,3.888,358.847Zm0,0" transform="translate(0 -330.636)" fill="#8b8b8b"/>
      <path id="Path_10922" data-name="Path 10922" d="M155.706,132.722v-7.193a.485.485,0,0,0-.253-.426l-4.876-2.66a1.45,1.45,0,0,0-1.4,0L144.3,125.1a.485.485,0,0,0-.253.426v7.193A1.456,1.456,0,0,0,144.81,134l4.37,2.384a1.452,1.452,0,0,0,1.4,0l4.37-2.384a1.457,1.457,0,0,0,.759-1.279Zm-6.06-9.427a.485.485,0,0,1,.465,0l4.1,2.234-4.1,2.234a.486.486,0,0,1-.465,0l-4.1-2.234Zm-4.37,9.853a.486.486,0,0,1-.253-.426v-6.375l4.158,2.268a1.416,1.416,0,0,0,.212.083v6.7Zm9.206,0-4.117,2.246v-6.7a1.432,1.432,0,0,0,.212-.083l4.158-2.268v6.375a.486.486,0,0,1-.253.426Zm0,0" transform="translate(-135.307 -114.799)" fill="#8b8b8b"/>
      <path id="Path_10923" data-name="Path 10923" d="M48.536,48.051h.971a.486.486,0,0,1,.486.486v.971a.486.486,0,0,1-.486.486h-.971a.486.486,0,0,1-.486-.486v-.971A.486.486,0,0,1,48.536,48.051Zm0,0" transform="translate(-45.134 -45.091)" fill="#8b8b8b"/>
      <path id="Path_10924" data-name="Path 10924" d="M48.536,400.051h.971a.486.486,0,0,1,.486.486v.971a.486.486,0,0,1-.486.486h-.971a.486.486,0,0,1-.486-.486v-.971A.486.486,0,0,1,48.536,400.051Zm0,0" transform="translate(-45.134 -375.724)" fill="#8b8b8b"/>
      <path id="Path_10925" data-name="Path 10925" d="M400.537,400.051h.971a.486.486,0,0,1,.486.486v.971a.486.486,0,0,1-.486.486h-.971a.486.486,0,0,1-.486-.486v-.971A.486.486,0,0,1,400.537,400.051Zm0,0" transform="translate(-375.768 -375.724)" fill="#8b8b8b"/>
      <path id="Path_10926" data-name="Path 10926" d="M400.537,48.051h.971a.486.486,0,0,1,.486.486v.971a.486.486,0,0,1-.486.486h-.971a.486.486,0,0,1-.486-.486v-.971A.486.486,0,0,1,400.537,48.051Zm0,0" transform="translate(-375.768 -45.091)" fill="#8b8b8b"/>
    </g>
  </g>
</svg>
