<svg id="volume" xmlns="http://www.w3.org/2000/svg" width="25.065" height="25.065" viewBox="0 0 25.065 25.065">
  <path id="Path_10971" data-name="Path 10971" d="M394.672,19.19a.734.734,0,0,0,.734-.734V.734A.734.734,0,0,0,394.672,0h-2.937A.734.734,0,0,0,391,.734V18.456a.734.734,0,0,0,.734.734Zm-2.2-17.722h1.469V17.722h-1.469Z" transform="translate(-371.859)" fill="#8b8b8b"/>
  <path id="Path_10972" data-name="Path 10972" d="M274.672,78.155a.734.734,0,0,0,.734-.734V62.734a.734.734,0,0,0-.734-.734h-2.937a.734.734,0,0,0-.734.734V77.421a.734.734,0,0,0,.734.734Zm-2.2-14.686h1.469V76.686h-1.469Z" transform="translate(-257.733 -58.965)" fill="#8b8b8b"/>
  <path id="Path_10973" data-name="Path 10973" d="M154.672,135.218a.734.734,0,0,0,.734-.734V122.734a.734.734,0,0,0-.734-.734h-2.937a.734.734,0,0,0-.734.734v11.749a.734.734,0,0,0,.734.734Zm-2.2-11.749h1.469v10.28h-1.469Z" transform="translate(-143.608 -116.028)" fill="#8b8b8b"/>
  <path id="Path_10974" data-name="Path 10974" d="M34.672,192.28a.734.734,0,0,0,.734-.734v-8.812a.734.734,0,0,0-.734-.734H31.734a.734.734,0,0,0-.734.734v8.812a.734.734,0,0,0,.734.734Zm-2.2-8.812h1.469v7.343H32.469Z" transform="translate(-29.482 -173.09)" fill="#8b8b8b"/>
  <path id="Path_10975" data-name="Path 10975" d="M24.331,423.469H17.546a2.2,2.2,0,0,0-4.153,0H.734a.734.734,0,1,0,0,1.469H13.393a2.2,2.2,0,0,0,4.153,0h6.784a.734.734,0,1,0,0-1.469Zm-8.861,1.469a.735.735,0,0,1-.734-.733h0a.734.734,0,1,1,.734.735Z" transform="translate(0 -401.341)" fill="#8b8b8b"/>
</svg>
