<svg id="Group_12978" data-name="Group 12978" xmlns="http://www.w3.org/2000/svg" width="57.274" height="46.076" viewBox="0 0 57.274 46.076">
  <g id="Group_23" data-name="Group 23" transform="translate(0 0)">
    <g id="Group_21" data-name="Group 21" transform="translate(46.729 29.818)">
      <path id="Path_19" data-name="Path 19" d="M3826.038,462.607c-.22,0-.439-.01-.653-.021l.143-5.565h1.02l.143,5.565C3826.478,462.6,3826.258,462.607,3826.038,462.607Z" transform="translate(-3825.385 -457.02)" fill="#1aaae2"/>
    </g>
    <g id="Group_22" data-name="Group 22">
      <path id="Path_20" data-name="Path 20" d="M3764.3,422.807h-38.19l-.308-.071a12.177,12.177,0,0,1-9.492-11.929,11.865,11.865,0,0,1,.175-2.056,12.172,12.172,0,0,1,9.671-9.947,15.241,15.241,0,0,1,28.138-3.415,11.848,11.848,0,0,1,14.241,8.919A9.892,9.892,0,0,1,3764.4,422.8Zm-37.533-5.569h37.324a4.323,4.323,0,0,0,1.012-8.391l-1.725-.6-.14-1.821a6.3,6.3,0,0,0-6.259-5.779,6.13,6.13,0,0,0-2.906.716l-2.958,1.57-1-3.195a9.661,9.661,0,0,0-18.821,1.9l-.257,2.492-2.506.007a6.64,6.64,0,0,0-6.553,5.552,6.443,6.443,0,0,0-.094,1.114A6.633,6.633,0,0,0,3726.768,417.238Z" transform="translate(-3716.311 -387.42)" fill="#1aaae2"/>
    </g>
  </g>
  <path id="Path_21" data-name="Path 21" d="M3774.909,468.046v-4.485h-49.343v4.485h4.485v4.485h-4.485v4.485h49.343v-4.485h-4.485v-4.485Zm-35.887,4.485h-4.485v-4.485h4.485Zm8.971,0h-4.485v-4.485h4.485Zm8.971,0h-4.485v-4.485h4.485Zm8.971,0h-4.485v-4.485h4.485Z" transform="translate(-3721.601 -430.941)" fill="#1aaae2"/>
</svg>
