<svg xmlns="http://www.w3.org/2000/svg" width="28.09" height="31.414" viewBox="0 0 28.09 31.414">
  <g id="Group_13033" data-name="Group 13033" transform="translate(-246.957 -153.557)">
    <path id="Path_11326" data-name="Path 11326" d="M274.047,162.155l-6.851-7.6v6.156a1.44,1.44,0,0,0,1.443,1.442Z" fill="none" stroke="#1aaae2" stroke-linecap="round" stroke-linejoin="round" stroke-miterlimit="10" stroke-width="2"/>
    <path id="Path_11327" data-name="Path 11327" d="M267.2,154.557H249.4A1.44,1.44,0,0,0,247.957,156v26.529a1.44,1.44,0,0,0,1.442,1.442h23.206a1.44,1.44,0,0,0,1.442-1.442V165.246" fill="none" stroke="#1aaae2" stroke-linecap="round" stroke-linejoin="round" stroke-miterlimit="10" stroke-width="2"/>
    <path id="Path_11328" data-name="Path 11328" d="M265.239,170.14l-5.821,3.348a.676.676,0,0,1-1-.592v-6.7a.676.676,0,0,1,1-.592l5.821,3.348A.7.7,0,0,1,265.239,170.14Z" fill="none" stroke="#1aaae2" stroke-linecap="round" stroke-linejoin="round" stroke-miterlimit="10" stroke-width="2"/>
  </g>
</svg>
