<svg xmlns="http://www.w3.org/2000/svg" width="64.474" height="65.305" viewBox="0 0 64.474 65.305">
  <g id="Group_13031" data-name="Group 13031" transform="translate(-1552.741 -1906.921)">
    <path id="Path_10764" data-name="Path 10764" d="M32.946,89.893a.948.948,0,1,0-.669-.278A.95.95,0,0,0,32.946,89.893Z" transform="translate(1524.779 1818.921)" fill="#583aa7"/>
    <path id="Path_10765" data-name="Path 10765" d="M56.946,89.893a.948.948,0,1,0-.669-.278A.95.95,0,0,0,56.946,89.893Z" transform="translate(1503.807 1818.921)" fill="#583aa7"/>
    <path id="Path_10766" data-name="Path 10766" d="M80.946,89.893a.948.948,0,1,0-.669-.278A.95.95,0,0,0,80.946,89.893Z" transform="translate(1482.835 1818.921)" fill="#583aa7"/>
    <path id="Path_10767" data-name="Path 10767" d="M112.946,89.893H151.3a.946.946,0,1,0,0-1.893H112.946a.946.946,0,0,0,0,1.893Z" transform="translate(1454.873 1818.921)" fill="#583aa7"/>
    <path id="Path_10768" data-name="Path 10768" d="M448.946,89.893h2.019a.946.946,0,1,0,0-1.893h-2.019a.946.946,0,0,0,0,1.893Z" transform="translate(1161.267 1818.921)" fill="#583aa7"/>
    <path id="Path_10769" data-name="Path 10769" d="M70.143,168H49.956A1.958,1.958,0,0,0,48,169.956v4.038a1.958,1.958,0,0,0,1.956,1.956H70.143a1.958,1.958,0,0,0,1.956-1.956v-4.038A1.958,1.958,0,0,0,70.143,168Zm.063,5.993a.063.063,0,0,1-.063.063H49.956a.063.063,0,0,1-.063-.063v-4.038a.063.063,0,0,1,.063-.063H70.143a.063.063,0,0,1,.063.063Z" transform="translate(1510.798 1768.015)" fill="#6181ff"/>
    <path id="Path_10770" data-name="Path 10770" d="M351.078,178.019H344.8a2.964,2.964,0,0,0-5.619,0h-2.238a.946.946,0,0,0,0,1.893h2.238a2.964,2.964,0,0,0,5.619,0h6.275a.946.946,0,0,0,0-1.893Zm-9.084,2.019a1.072,1.072,0,1,1,1.072-1.072A1.074,1.074,0,0,1,341.993,180.038Z" transform="translate(1259.135 1761.025)" fill="#6181ff"/>
    <path id="Path_10771" data-name="Path 10771" d="M259.974,168a3.974,3.974,0,1,0,3.974,3.974A3.979,3.979,0,0,0,259.974,168Zm0,6.056a2.082,2.082,0,1,1,2.082-2.082A2.084,2.084,0,0,1,259.974,174.056Z" transform="translate(1329.042 1768.015)" fill="#6181ff"/>
    <path id="Path_10772" data-name="Path 10772" d="M70.143,256H49.956A1.958,1.958,0,0,0,48,257.956v4.038a1.958,1.958,0,0,0,1.956,1.956H70.143a1.958,1.958,0,0,0,1.956-1.956v-4.038A1.958,1.958,0,0,0,70.143,256Zm.063,5.993a.063.063,0,0,1-.063.063H49.956a.063.063,0,0,1-.063-.063v-4.038a.063.063,0,0,1,.063-.063H70.143a.063.063,0,0,1,.063.063Z" transform="translate(1510.798 1691.118)" fill="#6181ff"/>
    <path id="Path_10773" data-name="Path 10773" d="M351.078,266.019h-1.229a2.964,2.964,0,0,0-5.619,0h-7.284a.946.946,0,0,0,0,1.893h7.284a2.964,2.964,0,0,0,5.619,0h1.229a.946.946,0,1,0,0-1.893Zm-4.038,2.019a1.072,1.072,0,1,1,1.072-1.072A1.074,1.074,0,0,1,347.04,268.038Z" transform="translate(1259.135 1684.128)" fill="#6181ff"/>
    <path id="Path_10774" data-name="Path 10774" d="M259.974,256a3.974,3.974,0,1,0,3.974,3.974A3.979,3.979,0,0,0,259.974,256Zm0,6.056a2.082,2.082,0,1,1,2.082-2.082A2.084,2.084,0,0,1,259.974,262.056Z" transform="translate(1329.042 1691.118)" fill="#6181ff"/>
    <path id="Path_10775" data-name="Path 10775" d="M70.143,344H49.956A1.958,1.958,0,0,0,48,345.956v4.038a1.958,1.958,0,0,0,1.956,1.956H70.143a1.958,1.958,0,0,0,1.956-1.956v-4.038A1.958,1.958,0,0,0,70.143,344Zm.063,5.993a.063.063,0,0,1-.063.063H49.956a.063.063,0,0,1-.063-.063v-4.038a.063.063,0,0,1,.063-.063H70.143a.063.063,0,0,1,.063.063Z" transform="translate(1510.798 1614.222)" fill="#6181ff"/>
    <path id="Path_10776" data-name="Path 10776" d="M351.078,354.019h-5.266a2.964,2.964,0,0,0-5.619,0h-3.246a.946.946,0,0,0,0,1.893h3.247a2.964,2.964,0,0,0,5.619,0h5.266a.946.946,0,0,0,0-1.893ZM343,356.038a1.072,1.072,0,1,1,1.072-1.072A1.074,1.074,0,0,1,343,356.038Z" transform="translate(1259.135 1607.231)" fill="#6181ff"/>
    <path id="Path_10777" data-name="Path 10777" d="M259.974,344a3.974,3.974,0,1,0,3.974,3.974A3.979,3.979,0,0,0,259.974,344Zm0,6.056a2.082,2.082,0,1,1,2.082-2.082A2.084,2.084,0,0,1,259.974,350.056Z" transform="translate(1329.042 1614.222)" fill="#6181ff"/>
    <path id="Path_10778" data-name="Path 10778" d="M59.491,56H4.984A4.99,4.99,0,0,0,0,60.984v40.375a4.99,4.99,0,0,0,4.984,4.984H59.491a4.99,4.99,0,0,0,4.984-4.984V60.984A4.99,4.99,0,0,0,59.491,56ZM4.984,57.893H59.491a3.1,3.1,0,0,1,3.091,3.091v3.091H1.893V60.984A3.1,3.1,0,0,1,4.984,57.893ZM59.491,104.45H4.984a3.1,3.1,0,0,1-3.091-3.091V65.968H62.582v35.392A3.1,3.1,0,0,1,59.491,104.45Z" transform="translate(1552.741 1865.884)" fill="#583aa7"/>
  </g>
</svg>
