<svg id="fast" xmlns="http://www.w3.org/2000/svg" width="40.89" height="31.586" viewBox="0 0 40.89 31.586">
  <g id="Group_12873" data-name="Group 12873" transform="translate(2.211 9.804)">
    <g id="Group_12872" data-name="Group 12872">
      <rect id="Rectangle_830" data-name="Rectangle 830" width="4.696" height="2.396" fill="#6b6b6b"/>
    </g>
  </g>
  <g id="Group_12875" data-name="Group 12875" transform="translate(2.211 19.387)">
    <g id="Group_12874" data-name="Group 12874">
      <rect id="Rectangle_831" data-name="Rectangle 831" width="4.696" height="2.396" fill="#6b6b6b"/>
    </g>
  </g>
  <g id="Group_12877" data-name="Group 12877" transform="translate(0 14.595)">
    <g id="Group_12876" data-name="Group 12876">
      <rect id="Rectangle_832" data-name="Rectangle 832" width="6.907" height="2.396" fill="#6b6b6b"/>
    </g>
  </g>
  <g id="Group_12879" data-name="Group 12879" transform="translate(9.303 0)">
    <g id="Group_12878" data-name="Group 12878">
      <path id="Path_10877" data-name="Path 10877" d="M132.282,58.245a15.793,15.793,0,1,0,15.793,15.793A15.811,15.811,0,0,0,132.282,58.245Zm0,29.191a13.4,13.4,0,1,1,13.4-13.4A13.413,13.413,0,0,1,132.282,87.436Z" transform="translate(-116.489 -58.245)" fill="#6b6b6b"/>
    </g>
  </g>
  <g id="Group_12881" data-name="Group 12881" transform="translate(23.474 8.65)">
    <g id="Group_12880" data-name="Group 12880">
      <path id="Path_10878" data-name="Path 10878" d="M296.326,174.3v-7.738h-2.4v9l6.174,4.207,1.349-1.98Z" transform="translate(-293.93 -166.557)" fill="#6b6b6b"/>
    </g>
  </g>
</svg>
