<svg xmlns="http://www.w3.org/2000/svg" width="62.365" height="66.744" viewBox="0 0 62.365 66.744">
  <g id="Group_13030" data-name="Group 13030" transform="translate(-1137.523 -1906.296)">
    <g id="Group_12846" data-name="Group 12846" transform="translate(1161.429 1933.541)">
      <g id="Group_12845" data-name="Group 12845">
        <path id="Path_10826" data-name="Path 10826" d="M202.579,145.868a1.039,1.039,0,0,0-.395-.395l-16.631-9.355a1.039,1.039,0,0,0-1.554.905v18.71a1.044,1.044,0,0,0,1.554.905l16.631-9.355A1.039,1.039,0,0,0,202.579,145.868Zm-16.5,8.088V138.8l13.471,7.577Z" transform="translate(-184 -135.982)" fill="#6181ff"/>
      </g>
    </g>
    <g id="Group_12848" data-name="Group 12848" transform="translate(1141.68 1962.647)">
      <g id="Group_12847" data-name="Group 12847">
        <path id="Path_10827" data-name="Path 10827" d="M48.631,362.079V360H46.552v2.079H32v2.079H46.552v2.079h2.079v-2.079H86.05v-2.079Z" transform="translate(-32 -360)" fill="#583aa7"/>
      </g>
    </g>
    <g id="Group_12850" data-name="Group 12850" transform="translate(1152.074 1927.306)">
      <g id="Group_12849" data-name="Group 12849">
        <path id="Path_10828" data-name="Path 10828" d="M128.631,88a16.631,16.631,0,1,0,16.631,16.631A16.631,16.631,0,0,0,128.631,88Zm0,31.183a14.552,14.552,0,1,1,14.552-14.552A14.552,14.552,0,0,1,128.631,119.183Z" transform="translate(-112 -88)" fill="#6181ff"/>
      </g>
    </g>
    <g id="Group_12852" data-name="Group 12852" transform="translate(1137.523 1921.07)">
      <g id="Group_12851" data-name="Group 12851">
        <path id="Path_10829" data-name="Path 10829" d="M59.247,40H3.118A3.118,3.118,0,0,0,0,43.118V88.853a3.118,3.118,0,0,0,3.118,3.118H59.247a3.118,3.118,0,0,0,3.118-3.118V43.118A3.118,3.118,0,0,0,59.247,40Zm1.039,48.853a1.039,1.039,0,0,1-1.039,1.039H3.118a1.039,1.039,0,0,1-1.039-1.039V43.118a1.039,1.039,0,0,1,1.039-1.039H59.247a1.039,1.039,0,0,1,1.039,1.039Z" transform="translate(0 -40)" fill="#583aa7"/>
      </g>
    </g>
    <g id="Group_12854" data-name="Group 12854" transform="translate(1141.923 1906.296)">
      <g id="Group_12853" data-name="Group 12853" transform="translate(0 0)">
        <rect id="Rectangle_804" data-name="Rectangle 804" width="1.811" height="1.811" fill="#583aa7"/>
      </g>
    </g>
    <g id="Group_12856" data-name="Group 12856" transform="translate(1145.546 1906.296)">
      <g id="Group_12855" data-name="Group 12855" transform="translate(0 0)">
        <rect id="Rectangle_805" data-name="Rectangle 805" width="2.415" height="1.811" fill="#583aa7"/>
      </g>
    </g>
    <g id="Group_12858" data-name="Group 12858" transform="translate(1149.773 1906.296)">
      <g id="Group_12857" data-name="Group 12857" transform="translate(0 0)">
        <rect id="Rectangle_806" data-name="Rectangle 806" width="2.415" height="1.811" fill="#583aa7"/>
      </g>
    </g>
  </g>
</svg>
