<svg xmlns="http://www.w3.org/2000/svg" width="35.585" height="33.629" viewBox="0 0 35.585 33.629">
  <g id="Group_13035" data-name="Group 13035" transform="translate(-158.46 -286.179)">
    <path id="Path_11380" data-name="Path 11380" d="M175.609,318.808H161.391a1.928,1.928,0,0,1-1.931-1.931V304.616a1.928,1.928,0,0,1,1.931-1.931h14.218a1.928,1.928,0,0,1,1.931,1.931v12.261A1.912,1.912,0,0,1,175.609,318.808Z" fill="none" stroke="#1aaae2" stroke-linecap="round" stroke-linejoin="round" stroke-miterlimit="10" stroke-width="2" stroke-dasharray="5.01 5.01"/>
    <path id="Path_11381" data-name="Path 11381" d="M164.637,300.083v-.644a1.929,1.929,0,0,1,1.931-1.932h14.217a1.929,1.929,0,0,1,1.932,1.932V311.7a1.929,1.929,0,0,1-1.932,1.932h-.643" fill="none" stroke="#1aaae2" stroke-linecap="round" stroke-linejoin="round" stroke-miterlimit="10" stroke-width="2"/>
    <path id="Path_11382" data-name="Path 11382" d="M169.813,294.906v-.644a1.929,1.929,0,0,1,1.932-1.932h14.217a1.929,1.929,0,0,1,1.932,1.932v12.26a1.929,1.929,0,0,1-1.932,1.932h-.644" fill="none" stroke="#1aaae2" stroke-linecap="round" stroke-linejoin="round" stroke-miterlimit="10" stroke-width="2" stroke-dasharray="5.01 5.01"/>
    <path id="Path_11383" data-name="Path 11383" d="M174.965,289.755v-.644a1.929,1.929,0,0,1,1.931-1.932h14.218a1.929,1.929,0,0,1,1.931,1.932v12.26a1.929,1.929,0,0,1-1.931,1.932h-.644" fill="none" stroke="#1aaae2" stroke-linecap="round" stroke-linejoin="round" stroke-miterlimit="10" stroke-width="2" stroke-dasharray="5.01 5.01"/>
  </g>
</svg>
