<svg id="conversation_1_" data-name="conversation (1)" xmlns="http://www.w3.org/2000/svg" width="66.674" height="66.674" viewBox="0 0 66.674 66.674">
  <g id="Group_12830" data-name="Group 12830" transform="translate(0 22.659)">
    <g id="Group_12829" data-name="Group 12829">
      <path id="Path_10805" data-name="Path 10805" d="M45.057,192.882a1.3,1.3,0,0,0-1.3,1.3v8.985a6.519,6.519,0,0,1-6.511,6.511H23.184a1.3,1.3,0,0,0-1.3,1.3l0,2.589-3.108-3.108a1.3,1.3,0,0,0-1.194-.782H9.116A6.519,6.519,0,0,1,2.6,203.17V183.116A6.519,6.519,0,0,1,9.116,176.6H22.268a1.3,1.3,0,0,0,0-2.6H9.116A9.126,9.126,0,0,0,0,183.116V203.17a9.126,9.126,0,0,0,9.116,9.116h7.795l5.348,5.348a1.3,1.3,0,0,0,2.223-.92l0-4.428H37.244a9.126,9.126,0,0,0,9.116-9.116v-8.985A1.3,1.3,0,0,0,45.057,192.882Z" transform="translate(0 -174)" fill="#6181ff"/>
    </g>
  </g>
  <g id="Group_12832" data-name="Group 12832" transform="translate(25.524)">
    <g id="Group_12831" data-name="Group 12831">
      <path id="Path_10806" data-name="Path 10806" d="M218.223,0h-3.3a18.927,18.927,0,0,0,0,37.855h3.3a18.964,18.964,0,0,0,4.8-.616L227.9,42.1a1.3,1.3,0,0,0,2.223-.921V33.649a19.108,19.108,0,0,0,4.975-6.134,18.723,18.723,0,0,0,2.057-8.588A18.949,18.949,0,0,0,218.223,0Zm9.809,31.974a1.3,1.3,0,0,0-.519,1.04v5.027l-3.187-3.185a1.3,1.3,0,0,0-1.3-.324,16.327,16.327,0,0,1-4.8.718h-3.3a16.323,16.323,0,1,1,0-32.646h3.3a16.323,16.323,0,0,1,9.809,29.37Z" transform="translate(-196)" fill="#583aa7"/>
    </g>
  </g>
  <g id="Group_12834" data-name="Group 12834" transform="translate(40.95 9.124)">
    <g id="Group_12833" data-name="Group 12833">
      <path id="Path_10807" data-name="Path 10807" d="M325.475,75.188a5.526,5.526,0,0,0-5.112-5.112,5.471,5.471,0,0,0-4.149,1.469,5.533,5.533,0,0,0-1.752,4.031,1.3,1.3,0,0,0,2.6,0,2.909,2.909,0,0,1,3.118-2.9,2.909,2.909,0,0,1,.43,5.74,2.464,2.464,0,0,0-1.941,2.416v3.129a1.3,1.3,0,1,0,2.6,0V80.935A5.485,5.485,0,0,0,325.475,75.188Z" transform="translate(-314.462 -70.063)" fill="#583aa7"/>
    </g>
  </g>
  <g id="Group_12836" data-name="Group 12836" transform="translate(45.161 26.869)">
    <g id="Group_12835" data-name="Group 12835">
      <path id="Path_10808" data-name="Path 10808" d="M349.023,206.712a1.3,1.3,0,1,0,.382.921A1.312,1.312,0,0,0,349.023,206.712Z" transform="translate(-346.8 -206.33)" fill="#583aa7"/>
    </g>
  </g>
  <g id="Group_12838" data-name="Group 12838" transform="translate(7.032 40.369)">
    <g id="Group_12837" data-name="Group 12837">
      <path id="Path_10809" data-name="Path 10809" d="M82.779,310H55.3a1.3,1.3,0,1,0,0,2.6H82.779a1.3,1.3,0,1,0,0-2.6Z" transform="translate(-54 -310)" fill="#6181ff"/>
    </g>
  </g>
  <g id="Group_12840" data-name="Group 12840" transform="translate(34.509 47.662)">
    <g id="Group_12839" data-name="Group 12839">
      <path id="Path_10810" data-name="Path 10810" d="M267.223,366.382a1.3,1.3,0,1,0,.382.921A1.312,1.312,0,0,0,267.223,366.382Z" transform="translate(-265 -366)" fill="#6181ff"/>
    </g>
  </g>
  <g id="Group_12842" data-name="Group 12842" transform="translate(7.032 47.662)">
    <g id="Group_12841" data-name="Group 12841">
      <path id="Path_10811" data-name="Path 10811" d="M77.657,366H55.3a1.3,1.3,0,1,0,0,2.6H77.657a1.3,1.3,0,1,0,0-2.6Z" transform="translate(-54 -366)" fill="#6181ff"/>
    </g>
  </g>
  <g id="Group_12844" data-name="Group 12844" transform="translate(7.032 33.077)">
    <g id="Group_12843" data-name="Group 12843">
      <path id="Path_10812" data-name="Path 10812" d="M74.315,254H55.3a1.3,1.3,0,1,0,0,2.6H74.315a1.3,1.3,0,1,0,0-2.6Z" transform="translate(-54 -254)" fill="#6181ff"/>
    </g>
  </g>
</svg>
