<svg xmlns="http://www.w3.org/2000/svg" width="103.534" height="83.291" viewBox="0 0 103.534 83.291">
  <g id="Group_12981" data-name="Group 12981" transform="translate(0)">
    <g id="Group_23" data-name="Group 23" transform="translate(0 0)">
      <g id="Group_21" data-name="Group 21" transform="translate(84.472 53.901)">
        <path id="Path_19" data-name="Path 19" d="M3826.565,467.119c-.4,0-.794-.018-1.18-.038l.259-10.061h1.844l.259,10.061C3827.36,467.1,3826.963,467.119,3826.565,467.119Z" transform="translate(-3825.385 -457.02)" fill="#4376ee"/>
      </g>
      <g id="Group_22" data-name="Group 22">
        <path id="Path_20" data-name="Path 20" d="M3803.062,451.388h-69.036l-.557-.128a22.012,22.012,0,0,1-17.158-21.564,21.411,21.411,0,0,1,.317-3.717A22,22,0,0,1,3734.11,408a27.55,27.55,0,0,1,50.865-6.173,21.417,21.417,0,0,1,25.743,16.123,17.882,17.882,0,0,1-7.478,33.429Zm-67.847-10.068h67.469a7.815,7.815,0,0,0,1.83-15.169l-3.119-1.08-.253-3.291a11.384,11.384,0,0,0-11.314-10.446,11.083,11.083,0,0,0-5.253,1.295l-5.346,2.838-1.816-5.775a17.464,17.464,0,0,0-34.022,3.437l-.465,4.5-4.53.012a12,12,0,0,0-11.847,10.037,11.646,11.646,0,0,0-.169,2.014A11.99,11.99,0,0,0,3735.215,441.321Z" transform="translate(-3716.311 -387.42)" fill="#4376ee"/>
      </g>
    </g>
    <path id="Path_21" data-name="Path 21" d="M3814.763,471.669v-8.108h-89.2v8.108h8.108v8.108h-8.108v8.108h89.2v-8.108h-8.108v-8.108Zm-64.873,8.108h-8.108v-8.108h8.108Zm16.217,0H3758v-8.108h8.108Zm16.216,0h-8.108v-8.108h8.108Zm16.217,0h-8.108v-8.108h8.108Z" transform="translate(-3718.398 -404.595)" fill="#4376ee"/>
  </g>
</svg>
