<svg id="Group_24" data-name="Group 24" xmlns="http://www.w3.org/2000/svg" width="31.617" height="25.435" viewBox="0 0 31.617 25.435">
  <g id="Group_23" data-name="Group 23" transform="translate(0 0)">
    <g id="Group_21" data-name="Group 21" transform="translate(25.796 16.46)">
      <path id="Path_19" data-name="Path 19" d="M3825.746,460.1c-.121,0-.242-.005-.36-.012l.079-3.072h.563l.079,3.072C3825.989,460.1,3825.868,460.1,3825.746,460.1Z" transform="translate(-3825.386 -457.02)" fill="#fff"/>
    </g>
    <g id="Group_22" data-name="Group 22">
      <path id="Path_20" data-name="Path 20" d="M3742.8,406.955h-21.083l-.17-.039a6.722,6.722,0,0,1-5.24-6.585,6.544,6.544,0,0,1,.1-1.135,6.72,6.72,0,0,1,5.339-5.491,8.413,8.413,0,0,1,15.533-1.885,6.541,6.541,0,0,1,7.861,4.924,5.461,5.461,0,0,1-2.283,10.208Zm-20.719-3.074h20.6a2.387,2.387,0,0,0,.559-4.632l-.952-.33-.077-1.005a3.477,3.477,0,0,0-3.455-3.19,3.384,3.384,0,0,0-1.6.4l-1.633.867-.555-1.764a5.333,5.333,0,0,0-10.39,1.05l-.142,1.376-1.383,0a3.665,3.665,0,0,0-3.618,3.065,3.545,3.545,0,0,0-.052.615A3.662,3.662,0,0,0,3722.084,403.88Z" transform="translate(-3716.311 -387.42)" fill="#fff"/>
    </g>
  </g>
  <path id="Path_21" data-name="Path 21" d="M3752.8,466.037v-2.476h-27.239v2.476h2.476v2.476h-2.476v2.476H3752.8v-2.476h-2.476v-2.476Zm-19.811,2.476h-2.476v-2.476h2.476Zm4.952,0h-2.476v-2.476h2.476Zm4.952,0h-2.476v-2.476h2.476Zm4.952,0h-2.476v-2.476h2.476Z" transform="translate(-3723.377 -445.554)" fill="#fff"/>
</svg>
