<svg xmlns="http://www.w3.org/2000/svg" width="27.155" height="28.061" viewBox="0 0 27.155 28.061">
  <g id="surface2953715" transform="translate(-6.25 -12.5)">
    <path id="Path_11871" data-name="Path 11871" d="M9.383,12.5A3.144,3.144,0,0,0,6.25,15.633V32.344a3.144,3.144,0,0,0,3.133,3.133h3.133v5.084l7.63-5.084H30.272a3.144,3.144,0,0,0,3.133-3.133V15.633A3.144,3.144,0,0,0,30.272,12.5Zm0,2.089H30.272a1.031,1.031,0,0,1,1.044,1.044V32.344a1.031,1.031,0,0,1-1.044,1.044H19.509l-4.9,3.272V33.389H9.383a1.031,1.031,0,0,1-1.044-1.044V15.633A1.031,1.031,0,0,1,9.383,14.589Zm9.4,2.089v2.089h2.089V16.678Zm0,4.178V31.3h2.089V20.855Zm0,0" fill="#8b8b8b"/>
  </g>
</svg>
