<svg xmlns="http://www.w3.org/2000/svg" width="32.011" height="21.341" viewBox="0 0 32.011 21.341">
  <path id="iconmonstr-user-22" d="M13.5,20.091c3.058-.707,5.9-1.326,4.527-3.929C13.826,8.237,16.91,4,21.342,4c4.519,0,7.527,4.4,3.318,12.163-1.42,2.62,1.533,3.237,4.526,3.929,2.648.611,2.825,1.9,2.825,4.144l0,1.1H30.235c0-2.786.111-3.157-1.635-3.56-2.536-.584-4.928-1.136-5.8-3.073a3.681,3.681,0,0,1,.3-3.392c1.83-3.377,2.293-6.3,1.266-8.025a3.764,3.764,0,0,0-6.018-.029c-1.024,1.7-.568,4.64,1.248,8.069a3.706,3.706,0,0,1,.275,3.392c-.88,1.927-3.3,2.485-5.855,3.074-1.67.387-1.563.784-1.563,3.544H10.674c0-2.929-.235-4.543,2.822-5.25ZM0,25.341H1.775c0-2.558-.248-1.847,2.433-2.632A4.442,4.442,0,0,0,7.3,20.559a3.2,3.2,0,0,0-.216-2.93c-1.27-2.4-1.626-4.5-.95-5.622a2.387,2.387,0,0,1,3.76.02c1.247,2.09-1.058,5.311-1.36,6.645h1.862A11.9,11.9,0,0,0,12,13.47,3.817,3.817,0,0,0,8,9.335c-3.325,0-5.638,3.178-2.489,9.122,1.032,1.953-1.1,2.417-3.395,2.946C.132,21.864,0,22.833,0,24.517l0,.824Z" transform="translate(0 -4)" fill="#8b8b8b"/>
</svg>
