<svg xmlns="http://www.w3.org/2000/svg" width="21.514" height="28.061" viewBox="0 0 21.514 28.061">
  <g id="decode_1_" data-name="decode (1)" transform="translate(-71.998 -16)">
    <path id="Path_10927" data-name="Path 10927" d="M72.661,148.82a2.31,2.31,0,0,0,1.659.694H86.657a2.323,2.323,0,0,0,1.654-.685l4.516-4.516a2.323,2.323,0,0,0,.685-1.654V131.742a.468.468,0,0,0-.468-.468h-.468v-1.4h-.935v1.4h-.935v-1.4a.468.468,0,0,0-.468-.468H88.367a.468.468,0,0,0-.468.468v1.4h-.935v-2.806h-.935v2.806h-.935v-2.806h-.935v2.806h-.935v-2.806a.468.468,0,0,0-.468-.468H80.884a.468.468,0,0,0-.468.468v2.806h-.935v-.935h-.935v.935h-.935v-.935h-.935v.935H75.74V128H74.8v3.274h-.935v-1.4h-.935v1.4h-.468a.468.468,0,0,0-.468.468v15.425a2.292,2.292,0,0,0,.662,1.653Zm16.174-18.482h.935v.935h-.935Zm-7.483-1.4h.935v2.338h-.935Zm11.225,3.274v10.45a1.394,1.394,0,0,1-.411.992L87.9,147.917V145.3a1.4,1.4,0,0,1,1.4-1.4h1.4v-.935H89.3a2.341,2.341,0,0,0-2.338,2.338v3.24a1.414,1.414,0,0,1-.307.034H74.32a1.381,1.381,0,0,1-.993-.414,1.364,1.364,0,0,1-.393-.986s0-.005,0-.008V132.209Z" transform="translate(0 -105.453)" fill="#8b8b8b"/>
    <path id="Path_10928" data-name="Path 10928" d="M152,83.742a.468.468,0,0,0,.468.468h1.871a.468.468,0,0,0,.468-.468V80.468a.468.468,0,0,0-.468-.468h-1.871a.468.468,0,0,0-.468.468Zm.935-2.806h.935v2.338h-.935Z" transform="translate(-75.325 -60.258)" fill="#8b8b8b"/>
    <path id="Path_10929" data-name="Path 10929" d="M120,16h.935v5.612H120Z" transform="translate(-45.196)" fill="#8b8b8b"/>
    <path id="Path_10930" data-name="Path 10930" d="M88,16h.935v1.871H88Z" transform="translate(-15.066)" fill="#8b8b8b"/>
    <path id="Path_10931" data-name="Path 10931" d="M88,64h.935v4.677H88Z" transform="translate(-15.066 -45.194)" fill="#8b8b8b"/>
    <path id="Path_10932" data-name="Path 10932" d="M408,16h.935v1.871H408Z" transform="translate(-316.359)" fill="#8b8b8b"/>
    <path id="Path_10933" data-name="Path 10933" d="M408,64h.935v4.677H408Z" transform="translate(-316.359 -45.194)" fill="#8b8b8b"/>
    <path id="Path_10934" data-name="Path 10934" d="M152,16h.935v2.806H152Z" transform="translate(-75.325)" fill="#8b8b8b"/>
    <path id="Path_10935" data-name="Path 10935" d="M184,16h.935v.935H184Z" transform="translate(-105.454)" fill="#8b8b8b"/>
    <path id="Path_10936" data-name="Path 10936" d="M184,48h.935v.935H184Z" transform="translate(-105.454 -30.129)" fill="#8b8b8b"/>
    <path id="Path_10937" data-name="Path 10937" d="M216,72h.935v2.338H216Z" transform="translate(-135.583 -52.726)" fill="#8b8b8b"/>
    <path id="Path_10938" data-name="Path 10938" d="M248,16h.935v3.274H248Z" transform="translate(-165.713)" fill="#8b8b8b"/>
    <path id="Path_10939" data-name="Path 10939" d="M248,88h.935v1.4H248Z" transform="translate(-165.713 -67.791)" fill="#8b8b8b"/>
    <path id="Path_10940" data-name="Path 10940" d="M216,16h.935v2.338H216Z" transform="translate(-135.583)" fill="#8b8b8b"/>
    <path id="Path_10941" data-name="Path 10941" d="M280,51.742a.468.468,0,0,0,.468.468h1.871a.468.468,0,0,0,.468-.468V48.468a.468.468,0,0,0-.468-.468h-1.871a.468.468,0,0,0-.468.468Zm.935-2.806h.935v2.338h-.935Z" transform="translate(-195.842 -30.129)" fill="#8b8b8b"/>
    <path id="Path_10942" data-name="Path 10942" d="M280,16h.935v.935H280Z" transform="translate(-195.842)" fill="#8b8b8b"/>
    <path id="Path_10943" data-name="Path 10943" d="M312,16h.935v.935H312Z" transform="translate(-225.971)" fill="#8b8b8b"/>
    <path id="Path_10944" data-name="Path 10944" d="M344,64h.935v4.209H344Z" transform="translate(-256.1 -45.194)" fill="#8b8b8b"/>
    <path id="Path_10945" data-name="Path 10945" d="M376,16h.935v4.677H376Z" transform="translate(-286.23)" fill="#8b8b8b"/>
    <path id="Path_10946" data-name="Path 10946" d="M376,112h.935v1.4H376Z" transform="translate(-286.23 -90.388)" fill="#8b8b8b"/>
    <path id="Path_10947" data-name="Path 10947" d="M344,16h.935v1.871H344Z" transform="translate(-256.1)" fill="#8b8b8b"/>
    <path id="Path_10948" data-name="Path 10948" d="M168,240h1.4v.935H168Z" transform="translate(-90.389 -210.905)" fill="#8b8b8b"/>
    <path id="Path_10949" data-name="Path 10949" d="M208,240h6.548v.935H208Z" transform="translate(-128.051 -210.905)" fill="#8b8b8b"/>
    <path id="Path_10950" data-name="Path 10950" d="M336,240h2.806v.935H336Z" transform="translate(-248.568 -210.905)" fill="#8b8b8b"/>
    <path id="Path_10951" data-name="Path 10951" d="M128,288h2.806v.935H128Z" transform="translate(-52.728 -256.099)" fill="#8b8b8b"/>
    <path id="Path_10952" data-name="Path 10952" d="M192,288h7.483v.935H192Z" transform="translate(-112.986 -256.099)" fill="#8b8b8b"/>
    <path id="Path_10953" data-name="Path 10953" d="M128,384h5.145v.935H128Z" transform="translate(-52.728 -346.486)" fill="#8b8b8b"/>
    <path id="Path_10954" data-name="Path 10954" d="M232,384h4.677v.935H232Z" transform="translate(-150.648 -346.486)" fill="#8b8b8b"/>
    <path id="Path_10955" data-name="Path 10955" d="M128,432h1.4v.935H128Z" transform="translate(-52.728 -391.68)" fill="#8b8b8b"/>
    <path id="Path_10956" data-name="Path 10956" d="M280,432h1.871v.935H280Z" transform="translate(-195.842 -391.68)" fill="#8b8b8b"/>
    <path id="Path_10957" data-name="Path 10957" d="M168,432h5.612v.935H168Z" transform="translate(-90.389 -391.68)" fill="#8b8b8b"/>
    <path id="Path_10958" data-name="Path 10958" d="M336,288h2.806v.935H336Z" transform="translate(-248.568 -256.099)" fill="#8b8b8b"/>
    <path id="Path_10959" data-name="Path 10959" d="M128,336h.935v.935H128Z" transform="translate(-52.728 -301.292)" fill="#8b8b8b"/>
    <path id="Path_10960" data-name="Path 10960" d="M160,336h6.548v.935H160Z" transform="translate(-82.857 -301.292)" fill="#8b8b8b"/>
    <path id="Path_10961" data-name="Path 10961" d="M288,336h5.612v.935H288Z" transform="translate(-203.374 -301.292)" fill="#8b8b8b"/>
  </g>
</svg>
