<svg id="layer" xmlns="http://www.w3.org/2000/svg" width="32.398" height="25.806" viewBox="0 0 32.398 25.806">
  <g id="Group_12862" data-name="Group 12862" transform="translate(0 0)">
    <path id="Path_10846" data-name="Path 10846" d="M32.275,69.6a.472.472,0,0,0-.075-.067h0a.473.473,0,0,0-.079-.046l-4.253-2.029,4.245-2.025a.473.473,0,0,0,.089-.818h0a.479.479,0,0,0-.08-.047l-4.252-2.029,4.245-2.025a.473.473,0,0,0,.088-.818h0a.471.471,0,0,0-.079-.046L23.226,55.4a.473.473,0,0,0-.407.854l8.008,3.821-14.64,6.986L1.57,60.077l14.616-6.986,3.546,1.692a.473.473,0,1,0,.407-.854L16.39,52.14a.472.472,0,0,0-.408,0l-15.7,7.5a.473.473,0,0,0-.087.818h0a.475.475,0,0,0,.079.046l4.246,2.029L.285,64.562A.473.473,0,0,0,.2,65.38h0a.476.476,0,0,0,.08.047l4.246,2.029L.285,69.482a.473.473,0,0,0-.164.75h0A.472.472,0,0,0,.2,70.3h0a.471.471,0,0,0,.076.044l15.7,7.506a.473.473,0,0,0,.408,0l15.723-7.5a.473.473,0,0,0,.162-.752ZM16.186,76.9,1.57,69.916l4.05-1.935,2.786,1.332a.473.473,0,1,0,.408-.854L5.9,67.068A.475.475,0,0,0,5.756,67L1.57,65,5.62,63.061l10.362,4.953a.473.473,0,0,0,.408,0l10.387-4.956a.472.472,0,0,0,.063.037L30.826,65l-14.64,6.986-4.332-2.07a.473.473,0,0,0-.408.854l4.536,2.168a.473.473,0,0,0,.408,0L26.77,67.98l4.056,1.936Z" transform="translate(0 -52.094)" fill="#6b6b6b"/>
  </g>
</svg>
