<svg id="equalizer" xmlns="http://www.w3.org/2000/svg" width="31.586" height="31.586" viewBox="0 0 31.586 31.586">
  <g id="Group_12867" data-name="Group 12867" transform="translate(0 11.281)">
    <g id="Group_12866" data-name="Group 12866">
      <path id="Path_10874" data-name="Path 10874" d="M30.458,174.051H12.249a4.491,4.491,0,0,0-8.7,0H1.128a1.128,1.128,0,1,0,0,2.256H3.544a4.491,4.491,0,0,0,8.7,0H30.458a1.128,1.128,0,1,0,0-2.256ZM7.9,177.435a2.256,2.256,0,1,1,2.256-2.256A2.256,2.256,0,0,1,7.9,177.435Z" transform="translate(0 -170.667)" fill="#6b6b6b"/>
    </g>
  </g>
  <g id="Group_12869" data-name="Group 12869" transform="translate(0 0)">
    <g id="Group_12868" data-name="Group 12868">
      <path id="Path_10875" data-name="Path 10875" d="M30.458,3.384H26.914a4.491,4.491,0,0,0-8.7,0H1.128a1.128,1.128,0,1,0,0,2.256H18.21a4.491,4.491,0,0,0,8.7,0h3.544a1.128,1.128,0,0,0,0-2.256Zm-7.9,3.384a2.256,2.256,0,1,1,2.256-2.256A2.256,2.256,0,0,1,22.562,6.768Z" transform="translate(0 0)" fill="#6b6b6b"/>
    </g>
  </g>
  <g id="Group_12871" data-name="Group 12871" transform="translate(0 22.562)">
    <g id="Group_12870" data-name="Group 12870">
      <path id="Path_10876" data-name="Path 10876" d="M30.458,344.718h-5.8a4.491,4.491,0,0,0-8.7,0H1.128a1.128,1.128,0,1,0,0,2.256H15.953a4.491,4.491,0,0,0,8.7,0h5.8a1.128,1.128,0,1,0,0-2.256ZM20.306,348.1a2.256,2.256,0,1,1,2.256-2.256A2.256,2.256,0,0,1,20.306,348.1Z" transform="translate(0 -341.334)" fill="#6b6b6b"/>
    </g>
  </g>
</svg>
