<svg xmlns="http://www.w3.org/2000/svg" width="15.828" height="19.401" viewBox="0 0 15.828 19.401">
  <g id="Group_13030" data-name="Group 13030" transform="translate(-153.519 -564.397)">
    <path id="Path_11006" data-name="Path 11006" d="M67.6,37.249a4.553,4.553,0,0,1,2.12-3.691A4.893,4.893,0,0,0,66.188,31.6c-1.492-.157-2.984.864-3.691.864-.785,0-1.963-.864-3.22-.864a4.665,4.665,0,0,0-4,2.434c-1.728,2.984-.471,7.381,1.178,9.816.864,1.178,1.806,2.513,3.063,2.434s1.728-.785,3.22-.785,1.885.785,3.22.785,2.2-1.178,2.984-2.356a9,9,0,0,0,1.335-2.748A4.342,4.342,0,0,1,67.6,37.249Z" transform="translate(99.075 537.515)" fill="#2e2e2e"/>
    <path id="Path_11007" data-name="Path 11007" d="M67.32,28.741A4.87,4.87,0,0,0,68.34,25.6a4.205,4.205,0,0,0-2.827,1.492,3.971,3.971,0,0,0-1.021,2.984A3.73,3.73,0,0,0,67.32,28.741Z" transform="translate(96.923 538.797)" fill="#2e2e2e"/>
  </g>
</svg>
