<svg id="live-stream" xmlns="http://www.w3.org/2000/svg" width="60.82" height="60.542" viewBox="0 0 60.82 60.542">
  <path id="Path_10817" data-name="Path 10817" d="M248,221.656h1.9v1.9H248Zm0,0" transform="translate(-218.54 -195.325)" fill="#8143ee"/>
  <path id="Path_10818" data-name="Path 10818" d="M57.019,170.718V143.159a2.851,2.851,0,0,0-2.851-2.851H31.36v-6.652h-1.9v6.652H6.652A2.851,2.851,0,0,0,3.8,143.159v27.559H0v2.851a4.757,4.757,0,0,0,4.752,4.752H56.069a4.757,4.757,0,0,0,4.752-4.752v-2.851ZM5.7,143.159a.95.95,0,0,1,.95-.95H54.168a.95.95,0,0,1,.95.95v27.559h-1.9V144.109H33.261v1.9H51.317v24.708h-9.5v-2.484a2.863,2.863,0,0,0-1.85-2.669l-5.752-2.157v-2.929l.95-.724v-8.042a2.851,2.851,0,0,0-2.851-2.851H29.577a5.96,5.96,0,0,0-5.791,4.521l-.3,1.18h2.167v5.191l.95.724v2.929l-5.751,2.157a2.862,2.862,0,0,0-1.851,2.669v2.484H9.5V146.01H27.559v-1.9H7.6v26.609H5.7Zm15.205,27.559v-2.484a.95.95,0,0,1,.617-.889l5.438-2.044a3.307,3.307,0,0,0,2.5,1.537v2.93h1.9v-2.93a3.307,3.307,0,0,0,2.5-1.537l5.439,2.039a.951.951,0,0,1,.616.89v2.488h-5.7v.95a.95.95,0,0,1-.95.95h-5.7a.95.95,0,0,1-.95-.95v-.95ZM31.36,160.265h-1.9l-1.9-1.451v-4.251h3.8v-1.9H26.134a4.062,4.062,0,0,1,3.444-1.9h2.733a.95.95,0,0,1,.95.95v7.1Zm.95,1.662v2.115c-.012.167-.16.974-1.9.974s-1.89-.814-1.9-.95v-2.139l.313.239H32ZM58.92,173.569a2.851,2.851,0,0,1-2.851,2.851H4.752A2.851,2.851,0,0,1,1.9,173.569v-.95h22.97a2.856,2.856,0,0,0,2.689,1.9h5.7a2.856,2.856,0,0,0,2.689-1.9H58.92Zm0,0" transform="translate(0 -117.779)" fill="#8143ee"/>
  <path id="Path_10819" data-name="Path 10819" d="M93.551,19.006a12.5,12.5,0,0,1,0-17.663L92.208,0a14.4,14.4,0,0,0,0,20.35Zm0,0" transform="translate(-77.545 0.001)" fill="#4376ee"/>
  <path id="Path_10820" data-name="Path 10820" d="M131.162,36.617l1.344-1.344a8.916,8.916,0,0,1,0-12.594l-1.344-1.344A10.816,10.816,0,0,0,131.162,36.617Zm0,0" transform="translate(-112.796 -18.801)" fill="#4376ee"/>
  <path id="Path_10821" data-name="Path 10821" d="M171.461,51.534a5.329,5.329,0,0,1,0-7.526l-1.344-1.344a7.23,7.23,0,0,0,0,10.214Zm0,0" transform="translate(-148.048 -37.596)" fill="#4376ee"/>
  <path id="Path_10822" data-name="Path 10822" d="M377.258,19.006,378.6,20.35A14.4,14.4,0,0,0,378.6,0l-1.343,1.344A12.5,12.5,0,0,1,377.258,19.006Zm0,0" transform="translate(-332.444 0.001)" fill="#4376ee"/>
  <path id="Path_10823" data-name="Path 10823" d="M347.422,36.617a10.816,10.816,0,0,0,0-15.281l-1.344,1.344a8.916,8.916,0,0,1,0,12.594Zm0,0" transform="translate(-304.968 -18.801)" fill="#4376ee"/>
  <path id="Path_10824" data-name="Path 10824" d="M316.246,52.878a7.23,7.23,0,0,0,0-10.214L314.9,44.007a5.329,5.329,0,0,1,0,7.526Zm0,0" transform="translate(-277.495 -37.596)" fill="#4376ee"/>
  <path id="Path_10825" data-name="Path 10825" d="M227.8,61.259a3.8,3.8,0,1,0-3.8-3.8A3.8,3.8,0,0,0,227.8,61.259Zm0-5.7a1.9,1.9,0,1,1-1.9,1.9A1.9,1.9,0,0,1,227.8,55.557Zm0,0" transform="translate(-197.391 -47.282)" fill="#4376ee"/>
</svg>
