<svg xmlns="http://www.w3.org/2000/svg" width="16.321" height="14.37" viewBox="0 0 16.321 14.37">
  <g id="Speech_Bubble_48_" transform="translate(0 -30.536)">
    <g id="Group_12958" data-name="Group 12958" transform="translate(0 30.536)">
      <path id="Path_11036" data-name="Path 11036" d="M2.375,44.906H1.219l.818-.818a2.767,2.767,0,0,0,.79-1.636A6.232,6.232,0,0,1,.385,39.564,5.656,5.656,0,0,1,.221,35.94a7.1,7.1,0,0,1,2.718-3.8,8.883,8.883,0,0,1,5.248-1.609A8.8,8.8,0,0,1,14.253,32.6a6.206,6.206,0,0,1,1.548,7.11,6.384,6.384,0,0,1-1.552,2.159,8.777,8.777,0,0,1-6.062,2.076A11.03,11.03,0,0,1,5.444,43.6a4.285,4.285,0,0,1-3.068,1.307ZM8.187,31.494c-3.961,0-6.392,2.362-7.043,4.7A4.823,4.823,0,0,0,3.572,41.79l.239.144-.007.279a3.772,3.772,0,0,1-.381,1.563,3.393,3.393,0,0,0,1.5-1.027l.2-.239.3.09a9.908,9.908,0,0,0,2.762.391c4.93,0,7.175-2.985,7.175-5.758a5.268,5.268,0,0,0-1.756-3.921,7.865,7.865,0,0,0-5.419-1.817Z" transform="translate(0 -30.536)"/>
    </g>
  </g>
</svg>
