<svg xmlns="http://www.w3.org/2000/svg" width="85.5" height="90.082" viewBox="0 0 85.5 90.082">
  <g id="Polygon_2" data-name="Polygon 2" transform="translate(85.5) rotate(90)" fill="none">
    <path d="M37.963,13.436a8,8,0,0,1,14.156,0L83.9,73.771A8,8,0,0,1,76.825,85.5H13.257A8,8,0,0,1,6.179,73.771Z" stroke="none"/>
    <path d="M 45.04076766967773 21.4556884765625 L 16.57060241699219 75.5 L 73.51092529296875 75.5 L 45.04076766967773 21.4556884765625 M 45.040771484375 9.16455078125 C 47.82970428466797 9.16455078125 50.61863708496094 10.58834838867188 52.11872863769531 13.43593597412109 L 83.90299987792969 73.77137756347656 C 86.70941925048828 79.09877014160156 82.846435546875 85.49998474121094 76.82504272460938 85.5 L 13.25650024414062 85.5 C 7.235107421875 85.5 3.372108459472656 79.09879302978516 6.178543090820312 73.77137756347656 L 37.96281433105469 13.43593597412109 C 39.46290588378906 10.58834838867188 42.25183868408203 9.16455078125 45.040771484375 9.16455078125 Z" stroke="none" fill="#4376ee"/>
  </g>
</svg>
