<svg id="cloud" xmlns="http://www.w3.org/2000/svg" width="65.084" height="60.542" viewBox="0 0 65.084 60.542">
  <path id="Path_10803" data-name="Path 10803" d="M45.359,20.923a17.391,17.391,0,0,0-25.337,6.427c-.483.944-1.351.826-2.2.826A12.237,12.237,0,0,0,6.248,36.446a1.587,1.587,0,0,1-1.005.959A7.811,7.811,0,0,0,.007,45.115,7.94,7.94,0,0,0,8,52.65h2.864V56.1H8.073a2.977,2.977,0,1,0,0,1.907h3.742a.953.953,0,0,0,.953-.953v-4.4h8.618V65.377H15.671a3.413,3.413,0,1,0,0,1.907H22.34a.953.953,0,0,0,.953-.953V52.65h8.6V70.413a4.054,4.054,0,1,0,1.907,0V52.65h2.078a.953.953,0,1,0,0-1.907H8a6.07,6.07,0,0,1-6.086-5.7A5.913,5.913,0,0,1,5.875,39.2a3.481,3.481,0,0,0,2.177-2.14,10.33,10.33,0,0,1,9.773-6.982,3.784,3.784,0,0,0,3.9-1.864,15.484,15.484,0,0,1,22.558-5.724.953.953,0,1,0,1.081-1.571ZM5.254,58.12a1.07,1.07,0,1,1,1.07-1.07A1.072,1.072,0,0,1,5.254,58.12Zm7.141,9.716A1.506,1.506,0,1,1,13.9,66.33,1.508,1.508,0,0,1,12.395,67.836ZM35,74.353a2.148,2.148,0,1,1-2.148-2.148A2.15,2.15,0,0,1,35,74.353Z" transform="translate(-0.001 -17.866)" fill="#8143ee"/>
  <path id="Path_10804" data-name="Path 10804" d="M322.8,91.232H310.731a.953.953,0,0,0,0,1.907h2.078V106.82a.953.953,0,0,0,.953.953h6.669a3.413,3.413,0,1,0,0-1.907h-5.716V93.139h8.08q.3,0,.6-.015v4.415a.953.953,0,0,0,.953.953h3.742a2.977,2.977,0,1,0,0-1.907H325.3v-3.7a12.586,12.586,0,0,0,10.179-12.449,12.451,12.451,0,0,0-12.893-12.21,1.556,1.556,0,0,1-1.405-.806,17.459,17.459,0,0,0-1.928-2.827.953.953,0,1,0-1.462,1.223,15.554,15.554,0,0,1,1.717,2.517,3.477,3.477,0,0,0,3.027,1.8l.12,0a10.547,10.547,0,0,1,10.918,10.341A10.736,10.736,0,0,1,322.8,91.232Zm.911,14.082a1.506,1.506,0,1,1-1.506,1.506A1.508,1.508,0,0,1,323.708,105.314Zm7.2-8.846a1.07,1.07,0,1,1-1.07,1.07A1.072,1.072,0,0,1,330.911,96.468Z" transform="translate(-270.4 -58.356)" fill="#4376ee"/>
</svg>
