<svg xmlns="http://www.w3.org/2000/svg" width="30.803" height="30.802" viewBox="0 0 30.803 30.802">
  <g id="Upgrade" transform="translate(-2 -2)">
    <path id="Path_10880" data-name="Path 10880" d="M28.182,8.16H27.124a4.609,4.609,0,0,0-7.28-3.234A7.691,7.691,0,0,0,6.266,8.181,4.617,4.617,0,0,0,6.62,17.4H28.182a4.62,4.62,0,0,0,0-9.241Zm2.546,7.162a3.611,3.611,0,0,1-2.546,1.052H6.62a3.594,3.594,0,0,1,0-7.187h.062a3.615,3.615,0,0,1,3.532,3.594h1.027A4.645,4.645,0,0,0,7.3,8.217,6.674,6.674,0,0,1,20.481,9.7h1.027a7.653,7.653,0,0,0-1.083-3.927,3.591,3.591,0,1,1,2.11,6.494v1.027a4.629,4.629,0,0,0,4.59-4.107h1.058a3.6,3.6,0,0,1,2.546,6.135Z" transform="translate(0)" fill="#6b6b6b"/>
    <path id="Path_10881" data-name="Path 10881" d="M8.567,23.134H19.348V22.107H8.567a1.54,1.54,0,1,1,0-3.08V18a2.567,2.567,0,1,0,0,5.134Z" transform="translate(-1.947 -7.786)" fill="#6b6b6b"/>
    <path id="Path_10882" data-name="Path 10882" d="M30.053,41a2.053,2.053,0,1,0,2.053,2.053A2.053,2.053,0,0,0,30.053,41Zm0,3.08a1.027,1.027,0,1,1,1.027-1.027A1.027,1.027,0,0,1,30.053,44.08Z" transform="translate(-12.653 -18.979)" fill="#6b6b6b"/>
    <path id="Path_10883" data-name="Path 10883" d="M32.69,39.326l-4.107-5.134a.513.513,0,0,0-.914.321v2.053H21.707l-1.419-1.293a.513.513,0,0,0-.61-.061l-.586.352-.166-.663a.513.513,0,0,0-.5-.389H16.374a.513.513,0,0,0-.5.389l-.166.663-.586-.352a.513.513,0,0,0-.61.061L13.1,36.567H7.134V34.513a.513.513,0,0,0-.914-.321L2.112,39.326a.513.513,0,0,0,0,.642L6.219,45.1a.513.513,0,0,0,.4.193.525.525,0,0,0,.17-.029.513.513,0,0,0,.343-.485V42.727H13.1l1.419,1.293a.513.513,0,0,0,.61.061l.586-.352.166.663a.513.513,0,0,0,.5.389h2.053a.513.513,0,0,0,.5-.389l.166-.663.586.352a.513.513,0,0,0,.61-.061l1.419-1.293h5.962v2.053a.513.513,0,0,0,.343.485.525.525,0,0,0,.17.029.513.513,0,0,0,.4-.193l4.107-5.134A.513.513,0,0,0,32.69,39.326ZM6.62,41.7a.513.513,0,0,0-.513.513v1.1l-2.936-3.67,2.936-3.67v1.1a.513.513,0,0,0,.513.513h6.4l.254.374-.621.154a.513.513,0,0,0-.389.5v2.053a.513.513,0,0,0,.389.5l.621.154-.254.375ZM19.878,43l-.853-.513a.513.513,0,0,0-.762.316l-.237.948H16.775l-.237-.947a.513.513,0,0,0-.762-.316L14.923,43l-.954-.869.571-.838a.513.513,0,0,0-.3-.787l-.947-.238V39.021l.947-.237a.513.513,0,0,0,.3-.787l-.571-.838.954-.869.853.513a.513.513,0,0,0,.762-.316l.237-.948h1.252l.237.947a.513.513,0,0,0,.762.316l.853-.513.954.869L20.261,38a.513.513,0,0,0,.3.787l.947.238v1.252l-.947.237a.513.513,0,0,0-.3.787l.571.838Zm8.817.314v-1.1a.513.513,0,0,0-.513-.513h-6.4l-.254-.374.621-.154a.513.513,0,0,0,.389-.5V38.62a.513.513,0,0,0-.389-.5l-.621-.154.254-.375h6.4a.513.513,0,0,0,.513-.513v-1.1l2.936,3.67Z" transform="translate(0 -15.572)" fill="#6b6b6b"/>
    <path id="Path_10884" data-name="Path 10884" d="M40.027,57.053V55H39v2.053a1.54,1.54,0,0,0,1.54,1.54h5.134V57.567H40.54A.513.513,0,0,1,40.027,57.053Z" transform="translate(-18.005 -25.791)" fill="#6b6b6b"/>
    <rect id="Rectangle_835" data-name="Rectangle 835" width="0.789" height="0.789" transform="translate(28.855 31.993)" fill="#6b6b6b"/>
    <path id="Path_10885" data-name="Path 10885" d="M17.647,57.053a.513.513,0,0,1-.513.513H12v1.027h5.134a1.54,1.54,0,0,0,1.54-1.54V55H17.647Z" transform="translate(-4.866 -25.791)" fill="#6b6b6b"/>
    <rect id="Rectangle_836" data-name="Rectangle 836" width="0.789" height="0.789" transform="translate(5.176 31.993)" fill="#6b6b6b"/>
  </g>
</svg>
