<svg xmlns="http://www.w3.org/2000/svg" width="14.158" height="13.45" viewBox="0 0 14.158 13.45">
  <g id="Group_13030" data-name="Group 13030" transform="translate(-397.967 -568.769)">
    <g id="app-desktop-badge-en" transform="translate(397.967 565.689)">
      <path id="Path_10414" data-name="Path 10414" d="M22.742,11H11.416A1.416,1.416,0,0,0,10,12.416v7.079a1.42,1.42,0,0,0,1.416,1.416H16.9v2.478H13.362a.531.531,0,0,0,0,1.062H21.5a.531.531,0,1,0,0-1.062H17.964V20.91h4.778a1.416,1.416,0,0,0,1.416-1.416V12.416A1.416,1.416,0,0,0,22.742,11Z" transform="translate(-10 -7.921)" fill="#131722"/>
      <path id="Path_10415" data-name="Path 10415" d="M14.411,17.981a.531.531,0,0,0,.779.708ZM17.377,15.5l.389-.354a.531.531,0,0,0-.779,0ZM19.3,17.627l-.389.354a.531.531,0,0,0,.779,0Zm2.973-2.478a.531.531,0,0,0-.786-.708l.779.708ZM15.2,18.689l2.57-2.832-.779-.708-2.577,2.832.779.708Zm1.784-2.832,1.933,2.124.779-.708-1.925-2.124-.779.708ZM19.7,17.981l2.57-2.832-.779-.708-2.577,2.832.779.708Z" transform="translate(-11.261 -8.885)" fill="#f0f3fa"/>
    </g>
  </g>
</svg>
