<svg xmlns="http://www.w3.org/2000/svg" xmlns:xlink="http://www.w3.org/1999/xlink" width="17.197" height="18.375" viewBox="0 0 17.197 18.375">
  <defs>
    <linearGradient id="linear-gradient" x1="0.295" y1="-0.061" x2="0.551" y2="0.922" gradientUnits="objectBoundingBox">
      <stop offset="0" stop-color="#006884"/>
      <stop offset="1" stop-color="#8ad1d0"/>
    </linearGradient>
    <linearGradient id="linear-gradient-2" x1="-0.075" y1="0.158" x2="0.915" y2="0.863" gradientUnits="objectBoundingBox">
      <stop offset="0" stop-color="#24bbb6"/>
      <stop offset="1" stop-color="#dbe692"/>
    </linearGradient>
    <linearGradient id="linear-gradient-3" x1="0.499" y1="1.058" x2="0.499" y2="-0.031" gradientUnits="objectBoundingBox">
      <stop offset="0" stop-color="#fcc072"/>
      <stop offset="1" stop-color="#f58a5b"/>
    </linearGradient>
    <linearGradient id="linear-gradient-4" x1="0.112" y1="1.178" x2="0.904" y2="0.121" gradientUnits="objectBoundingBox">
      <stop offset="0" stop-color="#712b8f"/>
      <stop offset="1" stop-color="#ea1d27"/>
    </linearGradient>
  </defs>
  <g id="Group_12930" data-name="Group 12930" transform="translate(-7.696 -6.282)">
    <path id="Path_10376" data-name="Path 10376" d="M195.3,35.609V27.364a.86.86,0,0,1,.785-.864,1.172,1.172,0,0,1,.785.236l15.155,8.324a.654.654,0,0,1,0,1.256L196.871,44.64a1.542,1.542,0,0,1-.785.236.86.86,0,0,1-.785-.864Z" transform="translate(-187.604 -20.218)" fill-rule="evenodd" fill="url(#linear-gradient)"/>
    <path id="Path_10377" data-name="Path 10377" d="M205.288,35.688,196.1,26.5h.157a1.172,1.172,0,0,1,.785.236l11.151,6.125Z" transform="translate(-187.776 -20.218)" fill-rule="evenodd" fill="url(#linear-gradient-2)"/>
    <path id="Path_10378" data-name="Path 10378" d="M210.627,40.132,207.8,37.305l2.905-2.905,4,2.2a.654.654,0,0,1,0,1.256Z" transform="translate(-190.289 -21.914)" fill-rule="evenodd" fill="url(#linear-gradient-3)"/>
    <path id="Path_10379" data-name="Path 10379" d="M196.2,47.209h0l9.109-9.109,2.827,2.827-11.072,6.047a1.263,1.263,0,0,1-.864.236Z" transform="translate(-187.798 -22.709)" fill-rule="evenodd" fill="url(#linear-gradient-4)"/>
  </g>
</svg>
