<svg xmlns="http://www.w3.org/2000/svg" width="32.701" height="32.702" viewBox="0 0 32.701 32.702">
  <g id="Group_13034" data-name="Group 13034" transform="translate(-414.524 -144.877)">
    <path id="Path_11349" data-name="Path 11349" d="M417.688,167.255h-.747a1.429,1.429,0,0,1-1.417-1.416V147.294a1.429,1.429,0,0,1,1.417-1.417h18.544a1.429,1.429,0,0,1,1.416,1.417v.747" fill="none" stroke="#1aaae2" stroke-linecap="round" stroke-linejoin="round" stroke-miterlimit="10" stroke-width="2"/>
    <path id="Path_11350" data-name="Path 11350" d="M422.349,171.917H421.6a1.429,1.429,0,0,1-1.417-1.416V151.956a1.429,1.429,0,0,1,1.417-1.417h18.544a1.429,1.429,0,0,1,1.416,1.417v.747" fill="none" stroke="#1aaae2" stroke-linecap="round" stroke-linejoin="round" stroke-miterlimit="10" stroke-width="2"/>
    <path id="Path_11351" data-name="Path 11351" d="M444.809,176.579H426.264a1.429,1.429,0,0,1-1.416-1.416V156.618a1.429,1.429,0,0,1,1.416-1.417h18.545a1.429,1.429,0,0,1,1.416,1.417v18.545A1.412,1.412,0,0,1,444.809,176.579Z" fill="none" stroke="#1aaae2" stroke-linecap="round" stroke-linejoin="round" stroke-miterlimit="10" stroke-width="2"/>
  </g>
</svg>
