<svg xmlns="http://www.w3.org/2000/svg" width="43.413" height="31.105" viewBox="0 0 43.413 31.105">
  <g id="Group_13036" data-name="Group 13036" transform="translate(-238.697 -434.883)">
    <path id="Path_11384" data-name="Path 11384" d="M256.569,444.527v11.657a2.289,2.289,0,0,0,1.151,1.994l9.969,5.829a2.447,2.447,0,0,0,2.3,0l9.97-5.829a2.29,2.29,0,0,0,1.15-1.994V444.527a2.288,2.288,0,0,0-1.15-1.994l-9.97-5.6a2.3,2.3,0,0,0-2.224,0l-9.97,5.6A2.21,2.21,0,0,0,256.569,444.527Z" fill="none" stroke="#1aaae2" stroke-linecap="round" stroke-linejoin="round" stroke-miterlimit="10" stroke-width="2"/>
    <path id="Path_11385" data-name="Path 11385" d="M260.4,436.244l-11.12,6.212a2.286,2.286,0,0,0-1.151,1.994v11.657a2.287,2.287,0,0,0,1.151,1.994l10.046,5.829a2.363,2.363,0,0,0,2.147.077l.46-.231" fill="none" stroke="#1aaae2" stroke-linecap="round" stroke-linejoin="round" stroke-miterlimit="10" stroke-width="2"/>
    <path id="Path_11386" data-name="Path 11386" d="M253.5,437.011l-.46-.23a2.362,2.362,0,0,0-2.148.076l-10.046,5.6a2.289,2.289,0,0,0-1.151,1.994v11.657a2.289,2.289,0,0,0,1.151,1.994l11.12,6.519" fill="none" stroke="#1aaae2" stroke-linecap="round" stroke-linejoin="round" stroke-miterlimit="10" stroke-width="2"/>
    <path id="Path_11387" data-name="Path 11387" d="M265.005,453.116a3.835,3.835,0,1,0,3.835-3.835l3.834-5.368h-7.669" fill="none" stroke="#1aaae2" stroke-linecap="round" stroke-linejoin="round" stroke-miterlimit="10" stroke-width="2"/>
  </g>
</svg>
