<svg xmlns="http://www.w3.org/2000/svg" width="26.755" height="30.455" viewBox="0 0 26.755 30.455">
  <g id="Group_13004" data-name="Group 13004" transform="translate(2715.42 -6217.059)">
    <path id="Path_10837" data-name="Path 10837" d="M30.778,19.986l-2.4-2.4-2.4,2.4a14.317,14.317,0,0,1-10.191,4.221H15v.787a25.483,25.483,0,0,0,9.452,19.858l3.926,3.189L32.3,44.852a25.483,25.483,0,0,0,9.452-19.858v-.787h-.787a14.317,14.317,0,0,1-10.19-4.221Zm.534,23.644-2.934,2.384L25.444,43.63a23.906,23.906,0,0,1-8.857-17.868A15.872,15.872,0,0,0,27.09,21.1l1.287-1.287L29.665,21.1a15.872,15.872,0,0,0,10.5,4.663A23.906,23.906,0,0,1,31.311,43.63Z" transform="translate(-2730.42 6199.473)" fill="#6b6b6b"/>
    <path id="Path_10838" data-name="Path 10838" d="M30,28.108a3.924,3.924,0,0,0-1.427,6.958v3.163a2.361,2.361,0,1,0,4.721,0V35.065A3.93,3.93,0,0,0,30,28.108Zm2.4,1.976a2.347,2.347,0,0,1-.288,3.881l-.393.227v4.037a.787.787,0,1,1-1.574,0V34.192l-.393-.227a2.353,2.353,0,0,1,.6-4.328,2.559,2.559,0,0,1,.586-.064A2.325,2.325,0,0,1,32.4,30.084Z" transform="translate(-2732.976 6197.255)" fill="#6b6b6b"/>
  </g>
</svg>
