<svg id="transformation" xmlns="http://www.w3.org/2000/svg" width="62.416" height="58.255" viewBox="0 0 62.416 58.255">
  <path id="Path_10830" data-name="Path 10830" d="M77.376,69.127H49.288V41.04A1.04,1.04,0,0,0,48.248,40H19.121A3.124,3.124,0,0,0,16,43.121V79.53a3.124,3.124,0,0,0,3.121,3.121H40.966v8.322H37.846a1.04,1.04,0,0,0-1.04,1.04v4.161a1.04,1.04,0,0,0,1.04,1.04H56.57a1.04,1.04,0,0,0,1.04-1.04V92.013a1.04,1.04,0,0,0-1.04-1.04H53.449V82.651H75.295a3.124,3.124,0,0,0,3.121-3.121V70.168a1.04,1.04,0,0,0-1.04-1.04ZM19.121,42.081H47.208v4.161H18.081V43.121A1.041,1.041,0,0,1,19.121,42.081ZM55.53,95.134H38.886V93.053H55.53Zm-4.161-4.161H43.047V82.651h3.121v3.121a1.04,1.04,0,1,0,2.081,0V82.651h3.121ZM76.335,79.53a1.041,1.041,0,0,1-1.04,1.04H19.121a1.041,1.041,0,0,1-1.04-1.04V48.322H47.208V70.168a1.04,1.04,0,0,0,1.04,1.04H76.335Z" transform="translate(-16 -38.959)" fill="#4376ee"/>
  <ellipse id="Ellipse_227" data-name="Ellipse 227" cx="0.94" cy="1.253" rx="0.94" ry="1.253" transform="translate(3.458 3.979)" fill="#6181ff"/>
  <circle id="Ellipse_228" data-name="Ellipse 228" cx="1.253" cy="1.253" r="1.253" transform="translate(5.965 3.979)" fill="#6181ff"/>
  <circle id="Ellipse_229" data-name="Ellipse 229" cx="1.253" cy="1.253" r="1.253" transform="translate(9.097 3.979)" fill="#6181ff"/>
  <path id="Path_10831" data-name="Path 10831" d="M72.966,121.04a1.04,1.04,0,0,0-1.04-1.04H67.765a1.04,1.04,0,0,0-1.04,1.04V125.2H63.6a1.04,1.04,0,0,0-1.04,1.04v3.121H59.443a1.04,1.04,0,0,0-1.04,1.04v4.161H55.282a1.04,1.04,0,0,0-1.04,1.04v3.121H51.121a1.04,1.04,0,0,0-1.04,1.04v3.121H48v2.081H77.127v-2.081H72.966ZM52.161,140.805h2.081v2.081H52.161Zm4.161-4.161H58.4v6.242H56.322Zm4.161-5.2h2.081v11.443H60.483Zm4.161-4.161h2.081v15.6H64.644Zm4.161,15.6V122.081h2.081v20.805Z" transform="translate(-43.839 -108.557)" fill="#6181ff"/>
  <rect id="Rectangle_807" data-name="Rectangle 807" width="2.506" height="1.88" transform="translate(35.413 34.681)" fill="#6181ff"/>
  <path id="Path_10832" data-name="Path 10832" d="M295.282,174.238a3.121,3.121,0,1,0-2.942-4.161H288v2.081h4.34A3.126,3.126,0,0,0,295.282,174.238Zm0-4.161a1.04,1.04,0,1,1-1.04,1.04A1.04,1.04,0,0,1,295.282,170.077Z" transform="translate(-252.631 -150.312)" fill="#583aa7"/>
  <path id="Path_10833" data-name="Path 10833" d="M311.926,40a3.126,3.126,0,0,0-2.942,2.081h-2.259a1.04,1.04,0,0,0-.79.363l-5.511,6.429-3.367-3.367a1.04,1.04,0,0,0-.736-.3H288v2.081h7.891l3.856,3.856a1.04,1.04,0,0,0,.736.3h5.38a3.121,3.121,0,1,0,0-2.081h-3.118l4.458-5.2h1.781A3.121,3.121,0,1,0,311.926,40Zm-3.121,9.362a1.04,1.04,0,1,1-1.04,1.04A1.04,1.04,0,0,1,308.805,49.362Zm3.121-5.2a1.04,1.04,0,1,1,1.04-1.04A1.04,1.04,0,0,1,311.926,44.161Z" transform="translate(-252.631 -38.959)" fill="#583aa7"/>
  <path id="Path_10834" data-name="Path 10834" d="M299.443,38.238a3.121,3.121,0,1,0-2.942-4.161H288v2.081h8.5A3.126,3.126,0,0,0,299.443,38.238Zm0-4.161a1.04,1.04,0,1,1-1.04,1.04A1.04,1.04,0,0,1,299.443,34.077Z" transform="translate(-252.631 -31.996)" fill="#583aa7"/>
  <path id="Path_10835" data-name="Path 10835" d="M297.667,123.857a3.122,3.122,0,1,0,1.471-1.471l-2.081-2.081a1.04,1.04,0,0,0-.735-.3H288v2.081h7.891Zm3.856,1.345a1.04,1.04,0,1,1-1.04-1.04A1.04,1.04,0,0,1,301.523,125.2Z" transform="translate(-252.631 -108.557)" fill="#583aa7"/>
  <path id="Path_10836" data-name="Path 10836" d="M304.416,169.982l3.2-4a3.123,3.123,0,1,0-1.553-1.39l-2.964,3.7H288v2.081h15.6a1.04,1.04,0,0,0,.812-.39Zm4.389-7.932a1.04,1.04,0,1,1-1.04,1.04A1.04,1.04,0,0,1,308.805,162.051Z" transform="translate(-252.631 -143.325)" fill="#583aa7"/>
</svg>
