<svg xmlns="http://www.w3.org/2000/svg" width="36.427" height="36.427" viewBox="0 0 36.427 36.427">
  <g id="server" transform="translate(0)">
    <path id="Path_10879" data-name="Path 10879" d="M29.313,29.313V31.8H21.771v-2.49h-2.49v-6.79H28.2V0H8.231V22.523h8.916v6.79h-2.49V31.8H7.115v-2.49H0v7.115H7.115v-2.49h7.542v2.49h7.115v-2.49h7.542v2.49h7.115V29.313ZM10.365,13.623V8.9H21.793v2.009h2.134V8.9h2.135v4.724Zm0-11.489H21.793V4.143h2.134V2.134h2.135V6.765h-15.7Zm0,13.623H21.781v1.919h2.134V15.758h2.147v4.631h-15.7ZM4.98,34.293H2.134V31.447H4.98Zm14.656,0H16.791V31.447h2.846Zm14.656,0H31.447V31.447h2.846Z" fill="#6b6b6b"/>
  </g>
</svg>
