<svg xmlns="http://www.w3.org/2000/svg" width="24.492" height="27.358" viewBox="0 0 24.492 27.358">
  <g id="Group_13023" data-name="Group 13023" transform="translate(-929.957 -151.557)">
    <path id="Path_11872" data-name="Path 11872" d="M264.543,154.557H249.2a1.242,1.242,0,0,0-1.243,1.244v22.871a1.241,1.241,0,0,0,1.243,1.243h20.006a1.241,1.241,0,0,0,1.243-1.243v-14.9" transform="translate(683 -2)" fill="none" stroke="#8b8b8b" stroke-linecap="round" stroke-linejoin="round" stroke-miterlimit="10" stroke-width="2"/>
    <path id="Path_11873" data-name="Path 11873" d="M264.3,169.5l-5.018,2.886a.583.583,0,0,1-.866-.51v-5.773a.583.583,0,0,1,.866-.51l5.018,2.886A.6.6,0,0,1,264.3,169.5Z" transform="translate(681.558 -3.512)" fill="none" stroke="#8b8b8b" stroke-linecap="round" stroke-linejoin="round" stroke-miterlimit="10" stroke-width="2"/>
  </g>
</svg>
