<svg xmlns="http://www.w3.org/2000/svg" width="23.493" height="22.183" viewBox="0 0 23.493 22.183">
  <g id="Group_13024" data-name="Group 13024" transform="translate(-816.026 -313.803)">
    <path id="Path_11878" data-name="Path 11878" d="M170.276,313.483h-9.522a1.291,1.291,0,0,1-1.293-1.293v-8.212a1.291,1.291,0,0,1,1.293-1.293h9.522a1.291,1.291,0,0,1,1.293,1.293v8.212A1.28,1.28,0,0,1,170.276,313.483Z" transform="translate(657.066 22.003)" fill="none" stroke="#8b8b8b" stroke-linecap="round" stroke-linejoin="round" stroke-miterlimit="10" stroke-width="1" stroke-dasharray="5.01 5.01"/>
    <path id="Path_11879" data-name="Path 11879" d="M164.637,299.232V298.8a1.292,1.292,0,0,1,1.293-1.294h9.522a1.292,1.292,0,0,1,1.294,1.294v8.211a1.292,1.292,0,0,1-1.294,1.294h-.431" transform="translate(655.357 23.713)" fill="none" stroke="#8b8b8b" stroke-linecap="round" stroke-linejoin="round" stroke-miterlimit="10" stroke-width="1"/>
    <path id="Path_11880" data-name="Path 11880" d="M169.813,294.055v-.431a1.292,1.292,0,0,1,1.294-1.294h9.522a1.292,1.292,0,0,1,1.294,1.294v8.211a1.292,1.292,0,0,1-1.294,1.294H180.2" transform="translate(653.647 25.423)" fill="none" stroke="#8b8b8b" stroke-linecap="round" stroke-linejoin="round" stroke-miterlimit="10" stroke-width="1" stroke-dasharray="5.01 5.01"/>
    <path id="Path_11881" data-name="Path 11881" d="M174.965,288.9v-.431a1.292,1.292,0,0,1,1.293-1.294h9.522a1.292,1.292,0,0,1,1.293,1.294v8.211a1.292,1.292,0,0,1-1.293,1.294h-.431" transform="translate(651.946 27.124)" fill="none" stroke="#8b8b8b" stroke-linecap="round" stroke-linejoin="round" stroke-miterlimit="10" stroke-width="1" stroke-dasharray="5.01 5.01"/>
  </g>
</svg>
