<svg xmlns="http://www.w3.org/2000/svg" width="28.061" height="28.061" viewBox="0 0 28.061 28.061">
  <path id="iconmonstr-help-3_1_" data-name="iconmonstr-help-3 (1)" d="M14.031,2.338A11.692,11.692,0,1,1,2.338,14.031,11.705,11.705,0,0,1,14.031,2.338Zm0-2.338A14.031,14.031,0,1,0,28.061,14.031,14.031,14.031,0,0,0,14.031,0Zm1.462,19.877a1.462,1.462,0,1,1-1.462-1.462A1.461,1.461,0,0,1,15.492,19.877Zm1.629-11.69A4.128,4.128,0,0,0,14.138,7.07c-2.549,0-4.2,1.812-4.2,4.618h2.351c0-1.737.969-2.354,1.8-2.354a1.546,1.546,0,0,1,1.595,1.433c.072.99-.456,1.493-1.125,2.129a4.305,4.305,0,0,0-1.674,4.055H15.23a3.081,3.081,0,0,1,1.093-2.547,5.238,5.238,0,0,0,1.8-3.533,3.66,3.66,0,0,0-1-2.686Z" fill="#8b8b8b"/>
</svg>
