<svg id="audiogram" xmlns="http://www.w3.org/2000/svg" width="43.793" height="43.793" viewBox="0 0 43.793 43.793">
  <g id="Group_12924" data-name="Group 12924">
    <g id="Group_12923" data-name="Group 12923">
      <path id="Path_10912" data-name="Path 10912" d="M42.3,18.365h.078V0H38.142V4.238H36.73V0H35.317V4.238H32.492V9.889H7.063v7.063H4.944A4.95,4.95,0,0,0,0,21.9v21.9H43.793V21.9A4.928,4.928,0,0,0,42.3,18.365ZM39.555,4.944V1.413h1.413V17.436a4.9,4.9,0,0,0-1.413-.427ZM33.9,5.651h4.238V7.063H33.9Zm0,2.825h4.238v8.476H36.73V9.889H33.9ZM8.476,11.3H35.317V26.841H33.9V12.714H9.889V26.841H8.476Zm10.9,8.476-1.592,2.654-2.952-7.381-1.891,4.727H11.3V14.127h21.19v5.651ZM32.492,21.19v5.651H11.3V21.19h2.6l.934-2.337,2.7,6.746,2.646-4.41ZM42.38,39.555H40.968v1.413H42.38V42.38H1.413V40.968H39.555V39.555H1.413V21.9a3.536,3.536,0,0,1,3.532-3.532H7.063v9.889H36.73V18.365h2.119A3.536,3.536,0,0,1,42.38,21.9Z" fill="#fff"/>
      <path id="Path_10913" data-name="Path 10913" d="M204.238,336a4.238,4.238,0,1,0,4.238,4.238A4.242,4.242,0,0,0,204.238,336Zm0,7.063a2.825,2.825,0,1,1,2.825-2.825A2.828,2.828,0,0,1,204.238,343.063Z" transform="translate(-182.342 -306.334)" fill="#ff5e5e"/>
      <rect id="Rectangle_844" data-name="Rectangle 844" width="8" height="1" transform="translate(28.396 33.397)" fill="#fff"/>
      <path id="Path_10914" data-name="Path 10914" d="M72,364.238h4.238V360H72Zm1.413-2.825h1.413v1.413H73.413Z" transform="translate(-65.643 -328.215)" fill="#fff"/>
      <path id="Path_10915" data-name="Path 10915" d="M136,364.238h4.238V360H136Zm1.413-2.825h1.413v1.413h-1.413Z" transform="translate(-123.992 -328.215)" fill="#fff"/>
      <path id="Path_10916" data-name="Path 10916" d="M2.119,8.476H6.357V6.357H8.476V2.119H6.357V0H2.119V2.119H0V6.357H2.119ZM1.413,4.944V3.532H3.532V1.413H4.944V3.532H7.063V4.944H4.944V7.063H3.532V4.944Z" fill="#ff5e5e"/>
      <path id="Path_10917" data-name="Path 10917" d="M32,226.825v2.119h1.413v-2.119a1.414,1.414,0,0,1,1.413-1.413V224A2.828,2.828,0,0,0,32,226.825Z" transform="translate(-29.175 -204.223)" fill="#fff"/>
      <rect id="Rectangle_845" data-name="Rectangle 845" width="1" height="2" transform="translate(10.396 3.397)" fill="#ff5e5e"/>
      <rect id="Rectangle_846" data-name="Rectangle 846" width="1" height="2" transform="translate(15.396 3.397)" fill="#ff5e5e"/>
      <rect id="Rectangle_847" data-name="Rectangle 847" width="2" height="2" transform="translate(29.396 30.397)" fill="#fff"/>
      <rect id="Rectangle_848" data-name="Rectangle 848" width="1" height="2" transform="translate(34.396 30.397)" fill="#fff"/>
      <rect id="Rectangle_849" data-name="Rectangle 849" width="2" height="2" transform="translate(29.396 35.397)" fill="#fff"/>
      <rect id="Rectangle_850" data-name="Rectangle 850" width="1" height="2" transform="translate(34.396 35.397)" fill="#fff"/>
    </g>
  </g>
</svg>
