<svg xmlns="http://www.w3.org/2000/svg" width="50.436" height="42.954" viewBox="0 0 50.436 42.954">
  <g id="history_2_" data-name="history (2)" transform="translate(0 -37.627)">
    <g id="Group_12926" data-name="Group 12926" transform="translate(0 37.627)">
      <g id="Group_12925" data-name="Group 12925" transform="translate(0 0)">
        <path id="Path_10962" data-name="Path 10962" d="M132.1,375.691l-2.386,2.113a21.929,21.929,0,0,0,2.469,2.375l2.017-2.466A18.388,18.388,0,0,1,132.1,375.691Z" transform="translate(-116.816 -342.08)" fill="#fff"/>
        <path id="Path_10963" data-name="Path 10963" d="M95.692,326.187l-2.924,1.255a21.2,21.2,0,0,0,1.605,3.035l2.684-1.705A18.245,18.245,0,0,1,95.692,326.187Z" transform="translate(-83.545 -297.498)" fill="#fff"/>
        <path id="Path_10964" data-name="Path 10964" d="M39.729,40.524A21.451,21.451,0,0,0,7.7,56.268L2.249,50.819,0,53.069l9.078,9.078,9.078-9.078-2.249-2.249-4.92,4.914a18.275,18.275,0,1,1,8.8,19.2l-1.6,2.75A21.475,21.475,0,0,0,39.729,40.524Z" transform="translate(0 -37.627)" fill="#fff"/>
        <path id="Path_10965" data-name="Path 10965" d="M267.312,109.627v17.5l7,5.25,1.909-2.545-5.727-4.3V109.627Z" transform="translate(-240.735 -102.469)" fill="#ff5e5e"/>
      </g>
    </g>
  </g>
</svg>
