<svg xmlns="http://www.w3.org/2000/svg" width="47" height="47" viewBox="0 0 47 47">
  <g id="blogger" transform="translate(-8 -8)">
    <path id="Path_10976" data-name="Path 10976" d="M52.347,8H10.653A2.656,2.656,0,0,0,8,10.653V44.766a2.656,2.656,0,0,0,2.653,2.653h31.46v3.79a3.79,3.79,0,0,0,7.581,0v-3.79h2.653A2.656,2.656,0,0,0,55,44.766V10.653A2.656,2.656,0,0,0,52.347,8ZM48.177,51.21a2.274,2.274,0,0,1-4.548,0v-.758h4.548Zm0-2.274H43.629v-.758h4.548Zm0-2.274H43.629V24.677h4.548Zm0-23.5H43.629v-.579l.468-.937h3.612l.468.937Zm-3.322-3.032,1.048-2.1,1.048,2.1Zm8.629,24.637A1.138,1.138,0,0,1,52.347,45.9H49.694V22.4a.766.766,0,0,0-.08-.339L46.582,16a.759.759,0,0,0-1.357,0l-3.032,6.065a.766.766,0,0,0-.08.339V45.9H10.653a1.138,1.138,0,0,1-1.137-1.137v-30.7H53.484Zm0-32.218H9.516v-1.9a1.138,1.138,0,0,1,1.137-1.137H52.347a1.138,1.138,0,0,1,1.137,1.137Z" fill="#fff"/>
    <path id="Path_10977" data-name="Path 10977" d="M40.758,33.516h.758a.758.758,0,1,0,0-1.516h-.758a.758.758,0,0,0,0,1.516Z" transform="translate(-28.968 -21.726)" fill="#fff"/>
    <path id="Path_10978" data-name="Path 10978" d="M72.758,33.516h.758a.758.758,0,0,0,0-1.516h-.758a.758.758,0,1,0,0,1.516Z" transform="translate(-57.935 -21.726)" fill="#fff"/>
    <path id="Path_10979" data-name="Path 10979" d="M104.758,33.516h.758a.758.758,0,0,0,0-1.516h-.758a.758.758,0,1,0,0,1.516Z" transform="translate(-86.903 -21.726)" fill="#fff"/>
    <path id="Path_10980" data-name="Path 10980" d="M400.758,192a.758.758,0,0,0-.758.758V211.71a.758.758,0,1,0,1.516,0V192.758A.758.758,0,0,0,400.758,192Z" transform="translate(-354.855 -166.565)" fill="#fff"/>
    <path id="Path_10981" data-name="Path 10981" d="M76.468,264H56.758a.758.758,0,1,0,0,1.516h19.71a.758.758,0,1,0,0-1.516Z" transform="translate(-43.452 -231.742)" fill="#fff"/>
    <path id="Path_10982" data-name="Path 10982" d="M76.468,296H56.758a.758.758,0,0,0,0,1.516h19.71a.758.758,0,0,0,0-1.516Z" transform="translate(-43.452 -260.71)" fill="#fff"/>
    <path id="Path_10983" data-name="Path 10983" d="M76.468,328H56.758a.758.758,0,1,0,0,1.516h19.71a.758.758,0,1,0,0-1.516Z" transform="translate(-43.452 -289.677)" fill="#fff"/>
    <path id="Path_10984" data-name="Path 10984" d="M70.4,360H56.758a.758.758,0,1,0,0,1.516H70.4a.758.758,0,1,0,0-1.516Z" transform="translate(-43.452 -318.645)" fill="#fff"/>
    <path id="Path_10985" data-name="Path 10985" d="M76.468,88H56.758a.758.758,0,0,0-.758.758V102.4a.758.758,0,0,0,.758.758h19.71a.758.758,0,0,0,.758-.758V88.758A.758.758,0,0,0,76.468,88Zm-.758,13.645H57.516V89.516H75.71Z" transform="translate(-43.452 -72.419)" fill="#ff5e5e"/>
  </g>
</svg>
