<svg xmlns="http://www.w3.org/2000/svg" width="46.991" height="46.982" viewBox="0 0 46.991 46.982">
  <g id="data_1_" data-name="data (1)" transform="translate(0 -0.046)">
    <path id="Path_10918" data-name="Path 10918" d="M300.579,352.051a6.27,6.27,0,0,0-6.21,5.481H290.4a.783.783,0,0,1-.783-.783v-4.7h-1.566v4.7A2.349,2.349,0,0,0,290.4,359.1h3.969a6.264,6.264,0,1,0,6.21-7.047Zm0,10.962a4.7,4.7,0,1,1,4.7-4.7A4.7,4.7,0,0,1,300.579,363.013Zm0,0" transform="translate(-259.857 -317.551)" fill="#ff5e5e"/>
    <path id="Path_10919" data-name="Path 10919" d="M6.269,12.575a6.27,6.27,0,0,0,6.21-5.481h3.969a.783.783,0,0,1,.783.783v3.915H18.8V7.877a2.349,2.349,0,0,0-2.349-2.349H12.479a6.264,6.264,0,1,0-6.21,7.047Zm0-10.962a4.7,4.7,0,1,1-4.7,4.7A4.7,4.7,0,0,1,6.269,1.613Zm0,0" transform="translate(0 0)" fill="#ff5e5e"/>
    <path id="Path_10920" data-name="Path 10920" d="M289.617,7.879A.783.783,0,0,1,290.4,7.1h3.969a6.264,6.264,0,1,0,0-1.566H290.4a2.349,2.349,0,0,0-2.349,2.349v3.915h1.566Zm10.962-6.264a4.7,4.7,0,1,1-4.7,4.7A4.7,4.7,0,0,1,300.579,1.615Zm0,0" transform="translate(-259.857 -0.002)" fill="#ff5e5e"/>
    <path id="Path_10921" data-name="Path 10921" d="M17.232,356.747a.783.783,0,0,1-.783.783H12.479a6.264,6.264,0,1,0,0,1.566h3.969a2.349,2.349,0,0,0,2.349-2.349v-4.652H17.232ZM6.269,363.011a4.7,4.7,0,1,1,4.7-4.7A4.7,4.7,0,0,1,6.269,363.011Zm0,0" transform="translate(0 -317.549)" fill="#ff5e5e"/>
    <path id="Path_10922" data-name="Path 10922" d="M162.844,139.127v-11.6a.783.783,0,0,0-.408-.687l-7.863-4.289a2.339,2.339,0,0,0-2.25,0l-7.863,4.289a.783.783,0,0,0-.408.687v11.6a2.348,2.348,0,0,0,1.224,2.062l7.047,3.844a2.341,2.341,0,0,0,2.25,0l7.047-3.844a2.35,2.35,0,0,0,1.224-2.062Zm-9.771-15.2a.782.782,0,0,1,.75,0l6.6,3.6-6.6,3.6a.784.784,0,0,1-.75,0l-6.6-3.6Zm-7.047,15.888a.783.783,0,0,1-.408-.687V128.847l6.705,3.657a2.285,2.285,0,0,0,.342.135v10.8Zm14.845,0-6.639,3.622v-10.8a2.3,2.3,0,0,0,.342-.135l6.705-3.657v10.279a.783.783,0,0,1-.408.687Zm0,0" transform="translate(-129.951 -110.255)" fill="#fff"/>
    <path id="Path_10923" data-name="Path 10923" d="M48.834,48.051H50.4a.783.783,0,0,1,.783.783V50.4a.783.783,0,0,1-.783.783H48.834a.783.783,0,0,1-.783-.783V48.834A.783.783,0,0,1,48.834,48.051Zm0,0" transform="translate(-43.348 -43.306)" fill="#fff"/>
    <path id="Path_10924" data-name="Path 10924" d="M48.834,400.051H50.4a.783.783,0,0,1,.783.783V402.4a.783.783,0,0,1-.783.783H48.834a.783.783,0,0,1-.783-.783v-1.566A.783.783,0,0,1,48.834,400.051Zm0,0" transform="translate(-43.348 -360.853)" fill="#fff"/>
    <path id="Path_10925" data-name="Path 10925" d="M400.834,400.051H402.4a.783.783,0,0,1,.783.783V402.4a.783.783,0,0,1-.783.783h-1.566a.783.783,0,0,1-.783-.783v-1.566A.783.783,0,0,1,400.834,400.051Zm0,0" transform="translate(-360.895 -360.853)" fill="#fff"/>
    <path id="Path_10926" data-name="Path 10926" d="M400.834,48.051H402.4a.783.783,0,0,1,.783.783V50.4a.783.783,0,0,1-.783.783h-1.566a.783.783,0,0,1-.783-.783V48.834A.783.783,0,0,1,400.834,48.051Zm0,0" transform="translate(-360.895 -43.306)" fill="#fff"/>
  </g>
</svg>
