<svg id="volume" xmlns="http://www.w3.org/2000/svg" width="42.954" height="42.954" viewBox="0 0 42.954 42.954">
  <path id="Path_10971" data-name="Path 10971" d="M397.292,32.887a1.258,1.258,0,0,0,1.258-1.258V1.258A1.258,1.258,0,0,0,397.292,0h-5.034A1.258,1.258,0,0,0,391,1.258v30.37a1.258,1.258,0,0,0,1.258,1.258Zm-3.775-30.37h2.517V30.37h-2.517Z" transform="translate(-358.197)" fill="#fff"/>
  <path id="Path_10972" data-name="Path 10972" d="M277.292,89.685a1.258,1.258,0,0,0,1.258-1.258V63.258A1.258,1.258,0,0,0,277.292,62h-5.034A1.258,1.258,0,0,0,271,63.258V88.427a1.258,1.258,0,0,0,1.258,1.258Zm-3.775-25.168h2.517V87.168h-2.517Z" transform="translate(-248.264 -56.799)" fill="#fff"/>
  <path id="Path_10973" data-name="Path 10973" d="M157.292,144.652a1.258,1.258,0,0,0,1.258-1.258V123.258A1.258,1.258,0,0,0,157.292,122h-5.034A1.258,1.258,0,0,0,151,123.258v20.135a1.258,1.258,0,0,0,1.258,1.258Zm-3.775-20.135h2.517v17.618h-2.517Z" transform="translate(-138.332 -111.765)" fill="#fff"/>
  <path id="Path_10974" data-name="Path 10974" d="M37.292,199.618a1.258,1.258,0,0,0,1.258-1.258v-15.1A1.258,1.258,0,0,0,37.292,182H32.258A1.258,1.258,0,0,0,31,183.258v15.1a1.258,1.258,0,0,0,1.258,1.258Zm-3.775-15.1h2.517V197.1H33.517Z" transform="translate(-28.399 -166.731)" fill="#fff"/>
  <path id="Path_10975" data-name="Path 10975" d="M41.7,424.517H30.07a3.775,3.775,0,0,0-7.118,0H1.258a1.258,1.258,0,0,0,0,2.517H22.952a3.775,3.775,0,0,0,7.118,0H41.7a1.258,1.258,0,0,0,0-2.517Zm-15.185,2.517a1.26,1.26,0,0,1-1.258-1.257v0a1.258,1.258,0,1,1,1.258,1.26Z" transform="translate(0 -386.596)" fill="#ff5e5e"/>
</svg>
