<svg xmlns="http://www.w3.org/2000/svg" width="49.2" height="42.954" viewBox="0 0 49.2 42.954">
  <g id="megaphone_1_" data-name="megaphone (1)" transform="translate(0 -32.5)">
    <path id="Path_10966" data-name="Path 10966" d="M37.836,41.652v-6.1a3.051,3.051,0,0,0-6.1-.1A26.543,26.543,0,0,1,17.6,41.047V40.1a2.907,2.907,0,0,0-2.9-2.9H10.146a2.907,2.907,0,0,0-2.9,2.9v1.038a8.211,8.211,0,0,0,0,16.307v1.038a2.909,2.909,0,0,0,1.942,2.74V74.493a.961.961,0,0,0,.961.961h2.277a3.241,3.241,0,0,0,3.235-3.24v-11a2.909,2.909,0,0,0,1.942-2.74v-.951a26.543,26.543,0,0,1,14.135,5.592,3.051,3.051,0,0,0,6.1-.1v-6.1a8.413,8.413,0,0,0,0-15.27ZM14.191,55.577h-3.54V43h3.54ZM9.165,40.1a.983.983,0,0,1,.981-.983H14.7a.983.983,0,0,1,.981.983v.98H9.165ZM1.922,49.287A6.293,6.293,0,0,1,8.2,43H8.73v12.58H8.2A6.293,6.293,0,0,1,1.922,49.287ZM13.736,72.214a1.317,1.317,0,0,1-1.314,1.318H11.107V61.383h2.63Zm1.942-13.736a.983.983,0,0,1-.981.983H10.146a.983.983,0,0,1-.981-.983V57.5h6.514Zm20.236,4.544a1.13,1.13,0,1,1-2.259,0V53.6a.961.961,0,1,0-1.922,0v7.087A27.967,27.967,0,0,0,16.64,55.577h-.526V43h.526a27.967,27.967,0,0,0,15.094-5.115v7.087a.961.961,0,0,0,1.922,0V35.552a1.13,1.13,0,1,1,2.259,0V63.023Zm1.922-8.292V43.843a6.49,6.49,0,0,1,0,10.888Z" fill="#fff"/>
    <path id="Path_10967" data-name="Path 10967" d="M474.283,197.2H472.3a.961.961,0,0,0,0,1.922h1.986a.961.961,0,0,0,0-1.922Z" transform="translate(-426.043 -148.869)" fill="#ff5e5e"/>
    <path id="Path_10968" data-name="Path 10968" d="M461.865,118.379a.958.958,0,0,0,.679-.281l1.983-1.979a.961.961,0,0,0-1.358-1.36l-1.983,1.979a.961.961,0,0,0,.679,1.641Z" transform="translate(-416.614 -74.1)" fill="#ff5e5e"/>
    <path id="Path_10969" data-name="Path 10969" d="M462.544,259.6a.961.961,0,0,0-1.358,1.36l1.983,1.979a.961.961,0,0,0,1.357-1.36Z" transform="translate(-416.614 -205.022)" fill="#ff5e5e"/>
    <path id="Path_10970" data-name="Path 10970" d="M331.19,197.2a.961.961,0,0,0-.961.961v.005a.961.961,0,1,0,.961-.966Z" transform="translate(-298.496 -148.869)" fill="#fff"/>
  </g>
</svg>
