<svg xmlns="http://www.w3.org/2000/svg" xmlns:xlink="http://www.w3.org/1999/xlink" width="49.842" height="42.954" viewBox="0 0 49.842 42.954">
  <defs>
    <clipPath id="clip-path">
      <rect width="49.842" height="42.954" fill="none"/>
    </clipPath>
  </defs>
  <g id="algorithms" clip-path="url(#clip-path)">
    <g id="algorithms-2" data-name="algorithms" transform="translate(0 -35.375)">
      <g id="Group_12922" data-name="Group 12922" transform="translate(0 35.375)">
        <path id="Path_10910" data-name="Path 10910" d="M249.424,119.255a.973.973,0,1,0,.28,1.332A.983.983,0,0,0,249.424,119.255Z" transform="translate(-223.778 -110.944)" fill="#ff5e5e"/>
        <path id="Path_10911" data-name="Path 10911" d="M49.842,57.05a5.765,5.765,0,0,0-4.783-5.672V42.219a2.774,2.774,0,0,0-2.771-2.771H35.827v-.824a3.254,3.254,0,0,0-3.25-3.25H17.83a3.254,3.254,0,0,0-3.25,3.25v.824H8.063a2.774,2.774,0,0,0-2.771,2.771V51.35L.281,56.361a.984.984,0,0,0,0,1.377l5.011,5.011v8.736a2.774,2.774,0,0,0,2.771,2.771H14.58v.824a3.254,3.254,0,0,0,3.25,3.25H32.577a3.254,3.254,0,0,0,3.25-3.25v-.824h6.462a2.774,2.774,0,0,0,2.771-2.771V62.722a5.765,5.765,0,0,0,4.783-5.672ZM6.266,53.13l3.919,3.919L6.266,60.969,2.346,57.05ZM33.88,75.079a1.3,1.3,0,0,1-1.3,1.3H17.83a1.3,1.3,0,0,1-1.3-1.3V71.485a1.3,1.3,0,0,1,1.3-1.3H32.577a1.3,1.3,0,0,1,1.3,1.3v3.594Zm8.409-2.771H35.827v-.824a3.254,3.254,0,0,0-3.25-3.25H17.83a3.254,3.254,0,0,0-3.25,3.25v.824H8.063a.825.825,0,0,1-.824-.824V62.749l5.011-5.011a.984.984,0,0,0,0-1.377L7.239,51.35V42.219a.825.825,0,0,1,.824-.824H14.58v.824a3.254,3.254,0,0,0,3.25,3.25h3a.974.974,0,1,0,0-1.947h-3a1.3,1.3,0,0,1-1.3-1.3V38.625a1.3,1.3,0,0,1,1.3-1.3H32.577a1.3,1.3,0,0,1,1.3,1.3v3.594a1.3,1.3,0,0,1-1.3,1.3H29.391a.974.974,0,0,0,0,1.947h3.186a3.254,3.254,0,0,0,3.25-3.25V41.4h6.462a.825.825,0,0,1,.824.824v9.158a5.756,5.756,0,0,0,0,11.345v8.762a.825.825,0,0,1-.824.824Zm1.8-11.45A3.809,3.809,0,1,1,47.9,57.05,3.845,3.845,0,0,1,44.086,60.859Z" transform="translate(0 -35.375)" fill="#fff"/>
      </g>
    </g>
  </g>
</svg>
